<?xml version="1.0" encoding="UTF-8" standalone="no"?>
<!DOCTYPE svg PUBLIC "-//W3C//DTD SVG 1.1//EN" "http://www.w3.org/Graphics/SVG/1.1/DTD/svg11.dtd">
<svg xmlns="http://www.w3.org/2000/svg" version="1.1" viewBox="0.00 0.00 1563.00 1341.00">
<g stroke-width="2.00" fill="none" stroke-linecap="butt">
<path stroke="#936b6c" vector-effect="non-scaling-stroke" d="
  M 467.82 492.01
  Q 469.62 514.20 476.47 533.52
  Q 483.13 552.32 495.16 572.33
  C 549.63 662.95 651.70 709.06 754.50 712.75
  C 868.22 716.83 986.99 672.02 1046.09 570.09
  Q 1066.29 535.26 1072.61 495.51"
/>
<path stroke="#a94a18" vector-effect="non-scaling-stroke" d="
  M 1072.61 495.51
  C 1097.47 365.15 1036.32 236.60 921.10 172.62
  Q 919.94 171.97 919.60 171.44
  Q 918.93 170.37 919.99 169.69
  Q 977.90 131.98 1045.58 121.35
  Q 1056.03 119.71 1060.47 120.53
  C 1075.66 123.34 1081.72 140.00 1085.77 152.98
  C 1094.66 181.52 1097.13 212.20 1094.73 241.00
  Q 1092.70 265.38 1088.58 289.09
  Q 1088.23 291.06 1089.64 289.64
  Q 1090.51 288.76 1091.51 286.76
  C 1112.29 245.28 1121.44 198.50 1117.46 152.27
  C 1115.73 132.15 1106.09 92.45 1085.68 83.56
  C 1071.48 77.37 1053.00 76.36 1037.75 77.24
  Q 1009.30 78.89 981.72 86.10
  Q 932.50 98.97 887.33 122.19
  C 879.09 126.42 869.88 133.07 862.95 136.93
  C 859.81 138.68 855.26 141.84 851.55 140.70
  Q 770.72 115.85 689.73 140.11
  Q 684.62 141.64 680.40 138.87
  C 631.61 106.82 575.61 85.21 517.49 79.58
  Q 491.86 77.09 471.75 79.29
  C 451.09 81.55 438.65 94.59 431.68 113.28
  C 423.04 136.46 420.87 163.13 422.66 187.50
  C 425.11 220.79 433.59 256.12 448.69 286.04
  Q 449.28 287.20 450.16 287.61
  A 0.72 0.72 0.0 0 0 451.18 286.88
  Q 450.51 280.47 449.53 274.74
  C 442.06 231.27 442.05 186.96 457.23 144.93
  C 461.54 133.02 466.14 124.45 478.15 121.30
  Q 483.74 119.82 494.38 120.98
  C 538.96 125.82 583.44 145.54 621.13 170.13
  Q 621.61 170.45 621.65 170.88
  A 0.61 0.60 73.0 0 1 621.34 171.47
  C 562.21 204.55 513.84 255.99 486.79 318.33
  Q 452.09 398.29 466.47 485.62
  Q 466.93 488.45 467.82 492.01"
/>
<path stroke="#e9af7b" vector-effect="non-scaling-stroke" d="
  M 1072.61 495.51
  Q 1069.07 478.38 1067.37 461.33
  Q 1067.34 461.04 1067.19 460.78
  L 1067.00 460.49"
/>
<path stroke="#ffc693" vector-effect="non-scaling-stroke" d="
  M 1067.00 460.49
  C 1066.26 457.16 1066.34 453.61 1065.61 450.56
  C 1060.70 430.14 1051.73 408.51 1033.42 396.56
  C 1007.66 379.75 968.36 370.03 938.25 379.18
  C 926.57 382.73 912.86 388.81 904.68 391.67
  Q 894.62 395.19 888.99 395.78
  C 870.31 397.75 858.94 386.59 851.79 370.76
  C 844.59 354.82 837.12 335.33 827.96 318.28
  C 815.08 294.30 787.35 262.06 755.83 273.26
  C 740.76 278.62 727.69 293.95 719.43 307.71
  Q 707.08 328.27 699.60 345.66
  C 691.86 363.65 686.57 382.18 671.25 391.20
  C 657.81 399.11 639.18 393.95 625.67 388.88
  Q 619.17 386.44 603.75 380.96
  C 570.32 369.08 530.55 377.19 504.29 400.85
  Q 478.10 424.46 475.00 460.16"
/>
<path stroke="#e9af7b" vector-effect="non-scaling-stroke" d="
  M 475.00 460.16
  L 467.82 492.01"
/>
<path stroke="#e8e7e6" vector-effect="non-scaling-stroke" d="
  M 1067.00 460.49
  L 1066.33 461.78
  Q 1066.20 462.01 1066.11 461.76
  Q 1066.06 461.63 1065.99 461.49
  A 0.27 0.26 -51.3 0 0 1065.50 461.55
  C 1064.06 467.13 1063.64 472.16 1060.85 477.93
  C 1057.24 485.40 1052.18 492.81 1049.24 499.74
  Q 1044.96 509.80 1040.40 519.75
  C 996.96 614.58 908.74 676.24 805.24 687.03
  C 758.42 691.92 710.45 685.69 665.79 670.69
  C 604.16 649.98 552.93 610.37 518.64 555.88
  Q 503.28 531.46 495.10 510.92
  Q 485.19 486.06 475.00 460.16"
/>
<path stroke="#a94636" vector-effect="non-scaling-stroke" d="
  M 501.74 157.39
  C 489.23 155.62 484.01 162.30 481.89 173.47
  Q 472.20 224.35 476.62 277.09
  A 1.42 1.42 0.0 0 0 478.88 278.12
  Q 479.66 277.56 480.54 276.00
  Q 506.97 228.98 545.19 190.94
  Q 551.78 184.37 558.54 177.95
  A 0.93 0.93 0.0 0 0 558.43 176.51
  C 557.83 176.09 557.00 175.25 556.36 174.91
  Q 530.54 161.48 501.74 157.39"
/>
<path stroke="#a94636" vector-effect="non-scaling-stroke" d="
  M 1058.25 172.00
  C 1052.36 140.47 995.72 169.25 982.25 176.17
  A 1.27 1.27 0.0 0 0 981.96 178.23
  Q 1028.95 221.86 1060.52 277.44
  Q 1061.24 278.71 1062.23 279.00
  A 1.15 1.14 10.7 0 0 1063.69 278.01
  C 1067.15 242.39 1064.80 207.02 1058.25 172.00"
/>
<path stroke="#a94a18" vector-effect="non-scaling-stroke" d="
  M 393.11 613.67
  Q 388.86 623.23 386.78 633.54
  A 0.96 0.95 -65.8 0 0 387.13 634.49
  Q 388.19 635.34 390.02 634.79
  Q 441.17 619.25 494.27 630.37
  Q 496.17 630.77 496.71 630.55
  Q 499.14 629.56 497.35 627.65
  Q 491.27 621.10 485.92 614.85
  Q 459.91 584.41 445.62 546.05
  Q 444.76 543.73 442.72 545.13
  Q 442.28 545.43 440.95 546.69
  C 421.01 565.65 404.01 589.17 393.11 613.67"
/>
<path stroke="#a94a18" vector-effect="non-scaling-stroke" d="
  M 1093.42 548.70
  Q 1077.98 592.03 1044.64 626.41
  Q 1043.41 627.69 1043.06 629.70
  A 0.57 0.57 0.0 0 0 1043.48 630.35
  Q 1045.19 630.80 1046.76 630.44
  C 1080.77 622.77 1116.42 625.41 1149.78 634.34
  Q 1151.40 634.77 1152.79 634.94
  A 1.30 1.30 0.0 0 0 1154.18 633.22
  Q 1137.28 584.14 1100.78 547.46
  C 1097.74 544.41 1095.07 544.09 1093.42 548.70"
/>
<path stroke="#936b6c" vector-effect="non-scaling-stroke" d="
  M 335.01 780.22
  Q 336.75 796.57 344.46 809.25
  Q 360.04 834.86 391.13 834.49
  A 1.60 1.60 0.0 0 0 392.62 832.36
  L 385.66 812.64"
/>
<path stroke="#a98284" vector-effect="non-scaling-stroke" d="
  M 385.66 812.64
  C 378.58 785.32 377.50 755.23 389.10 729.07
  Q 389.62 727.92 390.58 727.38
  A 0.52 0.52 0.0 0 1 391.36 727.83
  Q 391.38 735.61 391.28 743.00
  Q 391.05 759.95 394.60 776.53
  Q 398.76 795.96 408.70 812.78"
/>
<path stroke="#936b6c" vector-effect="non-scaling-stroke" d="
  M 408.70 812.78
  Q 410.46 815.05 413.99 818.99
  Q 430.46 837.35 455.24 836.33
  C 492.80 834.79 508.82 793.38 508.21 761.48"
/>
<path stroke="#a98284" vector-effect="non-scaling-stroke" d="
  M 508.21 761.48
  C 508.52 750.44 510.19 739.62 511.42 728.53
  A 1.04 1.03 -70.6 0 1 513.00 727.77
  Q 513.62 728.16 514.16 729.35
  C 519.01 740.03 521.89 751.37 521.53 763.19
  Q 521.21 773.62 520.71 784.03"
/>
<path stroke="#936b6c" vector-effect="non-scaling-stroke" d="
  M 520.71 784.03
  Q 519.33 801.76 518.54 819.49
  Q 518.46 821.39 519.33 822.54
  A 2.26 2.25 -31.1 0 0 522.09 823.22
  C 547.70 811.13 562.83 787.07 564.77 759.00
  Q 565.42 749.69 563.80 741.21"
/>
<path stroke="#a98284" vector-effect="non-scaling-stroke" d="
  M 563.80 741.21
  Q 563.30 735.33 562.25 729.51
  C 553.70 682.43 511.10 662.08 467.51 659.38
  C 421.77 656.56 356.23 668.31 337.07 717.47
  C 329.17 737.76 330.77 759.33 335.01 780.22"
/>
<path stroke="#e8e7e6" vector-effect="non-scaling-stroke" d="
  M 563.80 741.21
  Q 561.78 740.53 560.97 742.48
  C 552.92 762.07 545.61 778.44 527.88 790.39
  Q 524.86 792.42 522.90 789.00
  A 0.68 0.67 -23.5 0 0 522.10 788.69
  Q 521.06 789.03 521.00 787.60
  Q 520.92 785.81 520.71 784.03"
/>
<path stroke="#e8e7e6" vector-effect="non-scaling-stroke" d="
  M 508.21 761.48
  Q 505.41 767.36 501.62 777.65
  Q 497.90 787.71 489.81 797.08
  C 469.49 820.58 437.26 818.94 410.18 811.01
  A 0.66 0.66 0.0 0 0 409.37 811.86
  Q 409.62 812.59 408.70 812.78"
/>
<path stroke="#e8e7e6" vector-effect="non-scaling-stroke" d="
  M 385.66 812.64
  Q 384.76 812.50 383.64 811.80
  Q 382.61 811.17 381.67 810.97
  C 363.08 807.03 348.22 795.37 336.77 780.52
  Q 336.49 780.16 336.06 780.28
  Q 335.45 780.46 335.01 780.22"
/>
<path stroke="#936b6c" vector-effect="non-scaling-stroke" d="
  M 976.63 739.81
  C 976.42 743.58 975.76 747.70 975.65 751.06
  C 974.61 783.09 989.97 808.29 1017.61 823.73
  C 1019.42 824.74 1022.95 824.45 1022.49 821.50
  Q 1020.01 805.71 1018.82 791.94"
/>
<path stroke="#a98284" vector-effect="non-scaling-stroke" d="
  M 1018.82 791.94
  C 1017.91 772.37 1016.92 749.02 1025.59 730.88
  Q 1026.19 729.63 1027.31 729.52
  A 1.55 1.55 0.0 0 1 1029.02 730.94
  C 1029.46 736.53 1030.52 742.21 1030.66 747.54
  Q 1030.77 751.77 1030.79 755.65"
/>
<path stroke="#936b6c" vector-effect="non-scaling-stroke" d="
  M 1030.79 755.65
  C 1030.08 791.37 1046.99 838.05 1091.25 835.02
  C 1108.21 833.86 1121.94 827.43 1131.78 812.69"
/>
<path stroke="#a98284" vector-effect="non-scaling-stroke" d="
  M 1131.78 812.69
  Q 1134.65 808.59 1136.48 804.69
  Q 1145.10 786.24 1147.56 764.25
  C 1149.01 751.37 1149.53 738.53 1150.46 725.61
  A 0.59 0.59 0.0 0 1 1151.27 725.11
  L 1151.99 725.40
  A 1.07 1.07 0.0 0 1 1152.62 726.11
  C 1160.31 753.71 1161.85 782.47 1154.92 810.59"
/>
<path stroke="#936b6c" vector-effect="non-scaling-stroke" d="
  M 1154.92 810.59
  L 1147.41 832.66
  A 1.78 1.78 0.0 0 0 1148.90 835.00
  Q 1151.10 835.25 1154.01 834.97
  C 1184.26 832.11 1203.44 809.33 1205.21 779.75"
/>
<path stroke="#a98284" vector-effect="non-scaling-stroke" d="
  M 1205.21 779.75
  Q 1207.41 769.32 1207.96 763.99
  Q 1208.60 757.83 1208.45 748.97
  C 1207.62 697.79 1168.14 668.68 1121.27 661.33
  Q 1070.49 653.36 1022.72 671.77
  C 992.68 683.34 979.01 709.08 976.63 739.81"
/>
<path stroke="#e8e7e6" vector-effect="non-scaling-stroke" d="
  M 1205.21 779.75
  Q 1199.42 784.96 1194.24 790.09
  Q 1186.60 797.65 1183.03 800.10
  Q 1172.28 807.47 1159.02 809.50
  Q 1158.20 809.62 1157.06 810.22
  Q 1155.86 810.84 1154.92 810.59"
/>
<path stroke="#e8e7e6" vector-effect="non-scaling-stroke" d="
  M 1131.78 812.69
  Q 1118.18 813.86 1105.44 815.75
  Q 1094.75 817.34 1089.99 817.21
  C 1066.85 816.58 1050.13 802.80 1041.14 782.27
  Q 1036.36 771.36 1035.28 766.00
  Q 1033.87 758.96 1030.79 755.65"
/>
<path stroke="#e8e7e6" vector-effect="non-scaling-stroke" d="
  M 1018.82 791.94
  Q 1017.87 792.01 1017.38 791.41
  A 0.72 0.72 0.0 0 0 1016.56 791.19
  L 1014.91 791.84
  Q 1014.54 791.98 1014.16 791.88
  Q 1011.54 791.20 1009.78 789.71
  C 995.29 777.47 987.59 762.35 979.74 745.29
  Q 978.86 743.35 977.08 742.25
  Q 976.65 741.99 976.64 741.48
  L 976.63 739.81"
/>
<path stroke="#936b6c" vector-effect="non-scaling-stroke" d="
  M 906.44 725.96
  Q 770.26 766.95 634.25 725.92"
/>
<path stroke="#a94a18" vector-effect="non-scaling-stroke" d="
  M 634.25 725.92
  Q 614.69 718.47 595.10 711.36
  C 592.77 710.52 591.39 711.89 591.95 714.27
  C 594.86 726.68 596.80 738.94 597.77 751.65
  C 598.73 764.10 599.48 774.50 614.92 774.49"
/>
<path stroke="#a98284" vector-effect="non-scaling-stroke" d="
  M 614.92 774.49
  C 716.52 808.65 826.97 809.37 928.08 773.40"
/>
<path stroke="#a94a18" vector-effect="non-scaling-stroke" d="
  M 928.08 773.40
  L 937.91 770.86
  A 2.75 2.75 0.0 0 0 939.94 768.59
  L 948.11 711.24
  Q 948.27 710.14 947.23 710.53
  L 906.44 725.96"
/>
<path stroke="#ffc693" vector-effect="non-scaling-stroke" d="
  M 928.08 773.40
  C 927.59 768.19 927.36 762.66 926.30 757.91
  Q 924.16 748.31 919.64 739.71"
/>
<path stroke="#e9af7b" vector-effect="non-scaling-stroke" d="
  M 919.64 739.71
  Q 913.72 733.97 908.08 728.42
  Q 906.92 727.27 906.44 725.96"
/>
<path stroke="#e8e7e6" vector-effect="non-scaling-stroke" d="
  M 919.64 739.71
  Q 918.62 741.00 917.62 741.41
  C 877.29 757.72 833.69 768.63 790.50 769.84
  Q 775.84 770.25 755.02 769.89
  C 746.74 769.75 737.70 768.86 729.00 768.43
  Q 722.11 768.09 706.61 766.00
  Q 695.09 764.45 686.87 762.77
  Q 652.48 755.75 620.37 741.13"
/>
<path stroke="#e9af7b" vector-effect="non-scaling-stroke" d="
  M 634.25 725.92
  C 628.39 728.68 625.51 733.92 620.37 741.13"
/>
<path stroke="#ffc693" vector-effect="non-scaling-stroke" d="
  M 620.37 741.13
  C 614.04 751.72 613.49 761.66 614.59 773.75
  Q 614.63 774.22 614.92 774.49"
/>
<path stroke="#a98284" vector-effect="non-scaling-stroke" d="
  M 390.50 864.45
  C 360.66 864.89 334.54 850.81 319.00 825.26
  C 318.18 823.90 316.24 822.98 314.45 823.13
  Q 294.45 824.75 274.53 826.21
  Q 270.76 826.49 270.76 830.27
  L 270.82 984.04
  A 2.22 2.22 0.0 0 0 273.04 986.26
  L 323.01 986.26
  Q 325.58 986.26 325.53 983.69
  Q 325.29 969.81 324.57 956.13
  C 324.37 952.27 323.78 949.14 328.58 949.08
  C 356.58 948.75 388.19 939.63 395.36 908.23
  C 398.43 894.76 397.46 881.90 395.08 868.32
  C 394.61 865.59 393.21 864.41 390.50 864.45"
/>
<path stroke="#a98284" vector-effect="non-scaling-stroke" d="
  M 1210.74 953.51
  C 1210.57 950.06 1212.81 949.24 1215.75 949.03
  C 1223.77 948.45 1232.07 948.50 1240.00 947.16
  C 1283.34 939.85 1288.87 892.67 1279.29 858.07
  C 1272.05 831.95 1250.54 821.11 1224.48 823.93
  C 1222.32 824.16 1221.26 825.25 1220.20 826.95
  Q 1204.65 851.61 1176.49 859.45
  Q 1168.44 861.70 1160.05 864.21
  A 3.43 3.43 0.0 0 0 1157.61 867.48
  L 1157.21 982.48
  A 3.77 3.76 0.2 0 0 1160.98 986.26
  L 1209.75 986.25
  Q 1212.15 986.25 1212.06 983.85
  Q 1211.51 968.61 1210.74 953.51"
/>
<path stroke="#a98284" vector-effect="non-scaling-stroke" d="
  M 610.20 872.31
  A 1.46 1.45 14.1 0 1 611.46 871.56
  L 638.94 871.26
  A 3.61 3.61 0.0 0 0 642.51 867.66
  Q 642.53 848.75 642.25 829.61
  C 642.17 824.22 638.91 824.54 634.26 824.47
  Q 603.16 823.98 572.64 823.95
  A 4.08 4.08 0.0 0 0 569.72 825.18
  Q 566.12 828.86 562.06 832.55
  C 550.57 842.98 538.96 848.06 524.11 852.10
  A 3.54 3.53 82.4 0 0 521.51 855.51
  L 521.48 867.19
  Q 521.48 869.91 524.20 870.04
  L 551.39 871.30
  Q 553.56 871.41 553.58 873.58
  L 554.47 983.62
  A 2.66 2.65 89.8 0 0 557.12 986.26
  L 607.51 986.27
  A 1.56 1.56 0.0 0 0 609.07 984.72
  Q 609.39 929.72 609.66 874.75
  Q 609.66 873.29 610.20 872.31"
/>
<path stroke="#a98284" vector-effect="non-scaling-stroke" d="
  M 937.56 880.76
  Q 937.01 883.61 934.35 883.53
  Q 929.16 883.36 924.52 883.20
  Q 920.84 883.08 920.81 879.39
  Q 920.60 854.77 919.95 829.75
  C 919.89 827.44 919.70 824.22 916.50 824.22
  Q 892.16 824.19 868.44 824.22
  A 3.76 3.75 89.9 0 0 864.69 827.99
  L 865.04 982.53
  Q 865.04 986.26 868.78 986.26
  L 916.77 986.26
  A 3.33 3.33 0.0 0 0 920.10 982.98
  L 920.95 932.93
  A 3.39 3.39 0.0 0 1 924.32 929.59
  L 933.19 929.55
  Q 937.25 929.52 937.33 933.58
  Q 937.83 957.36 937.94 981.25
  Q 937.96 983.77 939.05 985.34
  A 2.12 2.10 72.7 0 0 940.79 986.26
  L 989.99 986.27
  A 3.01 3.01 0.0 0 0 993.00 983.26
  L 993.11 846.48
  A 3.00 3.00 0.0 0 0 992.05 844.19
  L 969.54 825.18
  A 4.69 4.67 64.8 0 0 966.50 824.08
  L 940.97 824.31
  A 3.24 3.23 89.9 0 0 937.77 827.53
  L 937.58 880.54
  A 1.28 1.17 -42.4 0 1 937.56 880.76"
/>
<path stroke="#a98284" vector-effect="non-scaling-stroke" d="
  M 760.92 918.66
  Q 773.68 923.84 793.02 929.50
  Q 796.91 930.64 797.65 934.28
  C 800.24 947.17 776.45 944.77 769.98 943.60
  Q 753.72 940.66 738.40 935.58
  Q 736.22 934.86 735.92 937.14
  Q 733.26 957.88 730.51 978.75
  Q 730.17 981.35 730.13 983.66
  A 1.02 1.01 -86.6 0 0 731.03 984.68
  C 756.68 987.43 781.97 988.71 807.66 985.81
  C 841.28 982.03 860.54 951.62 850.42 919.76
  C 841.51 891.75 816.43 887.59 792.63 878.65
  Q 787.01 876.54 781.41 874.41
  C 778.25 873.21 777.13 870.07 779.44 867.33
  C 788.49 856.54 824.83 868.42 836.24 872.79
  C 838.33 873.59 839.76 873.58 840.13 871.01
  Q 842.88 851.36 845.60 831.70
  C 846.28 826.73 836.96 826.44 833.76 826.74
  Q 793.85 830.51 753.74 830.42
  C 742.31 830.39 736.82 836.68 733.31 847.26
  C 724.06 875.13 731.64 906.76 760.92 918.66"
/>
<path stroke="#a98284" vector-effect="non-scaling-stroke" d="
  M 1015.30 856.52
  C 999.77 898.69 997.47 973.61 1056.30 985.65
  C 1070.05 988.46 1085.92 988.96 1098.97 984.74
  C 1146.51 969.40 1147.45 907.07 1139.29 868.24
  Q 1138.55 864.76 1135.25 864.21
  C 1123.80 862.32 1112.51 863.43 1099.57 864.57
  C 1088.62 865.53 1080.91 865.58 1071.26 863.46
  Q 1046.25 857.99 1021.03 853.55
  Q 1016.67 852.79 1015.30 856.52"
/>
<path stroke="#a98284" vector-effect="non-scaling-stroke" d="
  M 461.99 929.76
  C 462.08 927.53 463.98 926.34 465.75 926.40
  Q 478.25 926.83 490.75 927.05
  C 495.10 927.13 496.60 923.64 496.58 919.74
  Q 496.52 906.90 496.49 894.02
  C 496.47 888.43 495.69 885.29 489.49 885.17
  Q 479.14 884.96 468.79 885.03
  C 465.32 885.06 462.29 884.30 461.82 880.74
  C 461.26 876.51 461.45 871.27 467.25 871.30
  Q 489.40 871.41 511.97 871.50
  Q 515.03 871.51 515.01 868.46
  L 514.94 856.49
  A 1.61 1.61 0.0 0 0 513.39 854.89
  Q 512.29 854.85 510.77 855.17
  Q 492.89 858.95 474.97 862.53
  C 463.00 864.93 452.81 866.04 441.19 864.81
  C 431.32 863.77 421.58 862.84 411.75 863.01
  C 408.15 863.07 408.10 865.64 408.10 868.48
  Q 408.21 925.85 408.57 983.48
  A 2.72 2.72 0.0 0 0 411.27 986.18
  L 513.47 986.73
  Q 515.20 986.74 515.20 985.01
  L 515.20 941.76
  Q 515.20 940.03 513.47 940.03
  Q 490.38 940.00 466.38 939.80
  C 460.97 939.75 461.80 934.25 461.99 929.76"
/>
<path stroke="#a98284" vector-effect="non-scaling-stroke" d="
  M 966.53 1064.51
  C 964.49 1069.67 962.42 1075.61 961.77 1081.26
  C 959.21 1103.49 955.67 1125.67 954.82 1148.06
  C 954.54 1155.50 955.97 1164.49 955.94 1170.76
  Q 955.83 1197.26 956.86 1223.75
  Q 957.06 1229.00 957.36 1230.63
  C 960.43 1247.11 989.39 1244.63 1000.65 1242.85
  C 1014.40 1240.68 1015.90 1231.16 1015.31 1219.51
  C 1014.29 1199.62 1013.54 1179.92 1014.52 1160.11
  Q 1014.59 1158.76 1015.94 1158.84
  Q 1037.95 1160.27 1059.96 1158.94
  Q 1061.01 1158.88 1060.98 1159.92
  C 1060.29 1181.48 1058.73 1203.05 1058.26 1224.68
  C 1058.12 1231.03 1059.25 1235.02 1064.79 1237.92
  C 1077.11 1244.40 1096.70 1243.43 1110.53 1241.06
  Q 1111.03 1240.97 1111.38 1240.62
  C 1116.71 1235.36 1119.81 1230.88 1119.51 1223.01
  C 1119.13 1213.17 1117.75 1198.87 1117.98 1190.50
  C 1118.86 1158.40 1123.47 1125.16 1118.29 1093.25
  C 1116.51 1082.35 1112.78 1070.62 1106.44 1061.80
  C 1093.82 1044.25 1071.94 1033.35 1050.75 1032.22
  C 1023.83 1030.78 978.44 1034.31 966.53 1064.51"
/>
<path stroke="#a98284" vector-effect="non-scaling-stroke" d="
  M 264.63 1042.90
  C 264.03 1044.39 262.94 1047.08 262.85 1048.87
  C 261.41 1077.93 260.45 1113.78 262.16 1147.25
  Q 264.04 1184.11 265.02 1197.24
  Q 266.51 1217.20 283.37 1227.60
  Q 289.19 1231.20 292.98 1232.49
  Q 316.08 1240.37 341.76 1240.05
  C 354.12 1239.90 365.18 1238.77 376.74 1238.73
  C 386.91 1238.70 396.19 1238.99 405.76 1235.57
  Q 421.00 1230.13 425.53 1214.34
  C 427.48 1207.56 426.22 1201.48 426.64 1194.84
  Q 429.53 1149.47 428.80 1104.00
  C 428.56 1088.58 427.60 1072.81 428.20 1057.42
  C 428.51 1049.40 429.33 1041.26 420.76 1037.95
  C 408.55 1033.22 392.43 1034.73 379.67 1037.54
  C 374.71 1038.64 369.19 1038.90 368.12 1044.88
  Q 366.81 1052.25 366.83 1059.75
  C 366.87 1078.94 366.92 1098.11 368.52 1117.25
  Q 369.24 1125.91 368.36 1138.26
  C 366.69 1161.71 366.40 1182.13 363.97 1208.59
  Q 363.93 1209.01 363.51 1209.03
  L 332.23 1210.41
  Q 331.66 1210.43 331.36 1209.94
  Q 327.67 1203.83 327.08 1196.01
  Q 323.75 1152.08 322.56 1115.50
  C 321.90 1095.25 323.25 1074.97 324.13 1054.75
  C 324.32 1050.48 324.99 1044.62 322.88 1041.13
  C 317.23 1031.77 289.84 1032.87 280.51 1033.54
  C 274.15 1034.00 267.19 1036.56 264.63 1042.90"
/>
<path stroke="#a98284" vector-effect="non-scaling-stroke" d="
  M 728.09 1240.25
  C 735.65 1237.19 738.24 1235.33 738.69 1226.34
  C 739.75 1205.00 741.76 1183.78 740.11 1162.42
  Q 739.80 1158.39 740.44 1154.11
  C 743.58 1133.11 744.20 1110.40 744.32 1089.51
  C 744.37 1079.60 743.53 1068.85 743.01 1058.49
  Q 742.67 1051.45 741.13 1048.24
  C 733.96 1033.34 707.63 1034.21 694.56 1036.98
  Q 685.39 1038.93 684.34 1047.61
  Q 683.14 1057.46 684.08 1075.25
  C 684.50 1083.18 685.42 1091.19 685.12 1098.93
  C 684.55 1113.30 682.81 1127.67 681.56 1142.00
  Q 680.17 1157.98 680.96 1174.00
  C 681.25 1179.70 680.21 1188.01 679.95 1192.00
  C 679.31 1201.81 678.86 1211.63 677.58 1221.38
  Q 676.87 1226.77 677.26 1229.76
  C 678.30 1237.63 686.17 1239.92 692.76 1241.06
  C 704.67 1243.12 716.51 1244.93 728.09 1240.25"
/>
<path stroke="#a98284" vector-effect="non-scaling-stroke" d="
  M 1221.97 1212.87
  Q 1221.54 1212.88 1221.59 1212.45
  Q 1223.66 1195.52 1224.98 1178.50
  Q 1225.90 1166.72 1225.46 1158.25
  Q 1224.07 1131.73 1225.92 1108.76
  C 1226.95 1095.87 1227.91 1083.38 1227.57 1070.44
  C 1227.43 1065.11 1228.26 1060.03 1228.84 1054.75
  C 1229.68 1047.17 1227.83 1040.12 1219.91 1037.62
  C 1210.17 1034.54 1170.07 1030.87 1168.88 1048.01
  Q 1168.56 1052.58 1168.56 1053.75
  C 1168.57 1093.23 1166.33 1132.78 1164.40 1172.21
  C 1163.63 1187.81 1160.62 1203.38 1160.81 1218.99
  Q 1160.99 1233.78 1175.02 1237.32
  C 1191.18 1241.39 1212.66 1239.04 1230.99 1238.81
  C 1247.11 1238.61 1262.17 1237.91 1277.74 1237.26
  Q 1283.39 1237.03 1288.25 1233.08
  C 1292.60 1229.54 1290.19 1221.49 1287.53 1217.86
  C 1283.68 1212.62 1276.55 1212.09 1270.25 1212.08
  Q 1245.99 1212.01 1221.97 1212.87"
/>
<path stroke="#a98284" vector-effect="non-scaling-stroke" d="
  M 571.20 1113.41
  A 0.33 0.33 0.0 0 1 570.57 1113.58
  Q 555.50 1082.87 537.05 1053.67
  C 532.08 1045.79 528.37 1039.94 520.03 1038.50
  C 509.05 1036.61 474.54 1033.97 468.76 1048.74
  Q 467.66 1051.56 468.06 1057.86
  Q 469.94 1087.51 471.58 1117.17
  Q 472.08 1126.18 471.72 1133.34
  C 471.26 1142.60 470.27 1152.95 470.55 1163.34
  C 470.81 1173.23 469.86 1182.05 469.08 1191.51
  C 468.49 1198.67 469.85 1208.04 468.48 1217.29
  C 466.90 1228.01 466.23 1235.79 477.85 1239.32
  C 487.92 1242.38 499.33 1242.32 509.74 1241.82
  C 514.15 1241.60 518.92 1240.16 522.00 1236.83
  C 524.01 1234.65 524.26 1229.82 524.49 1227.25
  C 526.36 1206.06 526.50 1183.26 527.47 1161.26
  Q 527.76 1154.61 528.08 1148.32
  Q 528.21 1145.77 529.27 1148.09
  Q 529.50 1148.60 530.00 1149.59
  Q 541.65 1172.66 553.63 1195.56
  Q 560.86 1209.37 567.01 1223.70
  Q 569.88 1230.39 572.10 1232.70
  C 577.58 1238.40 584.45 1238.83 592.75 1238.68
  C 601.29 1238.52 611.14 1238.61 619.01 1235.53
  C 629.73 1231.34 629.28 1221.93 629.45 1212.08
  Q 629.52 1207.69 629.95 1202.43
  Q 631.11 1188.12 630.69 1173.75
  Q 629.53 1134.61 627.68 1095.50
  Q 626.97 1080.56 628.87 1054.95
  Q 629.33 1048.78 628.35 1046.14
  C 624.60 1035.90 600.27 1036.78 589.75 1036.36
  C 583.66 1036.11 575.39 1037.87 571.96 1043.56
  Q 570.55 1045.91 570.47 1050.69
  C 570.13 1071.59 569.65 1092.56 571.20 1113.41"
/>
<path stroke="#a98284" vector-effect="non-scaling-stroke" d="
  M 855.39 1142.30
  Q 879.18 1140.90 903.00 1140.29
  C 906.81 1140.19 912.33 1139.00 915.16 1136.25
  Q 916.41 1135.03 916.53 1132.96
  C 917.55 1114.88 904.33 1114.05 890.74 1114.27
  Q 872.43 1114.56 854.11 1115.90
  Q 853.59 1115.94 853.56 1115.42
  C 852.59 1098.34 852.10 1081.08 849.97 1064.47
  A 0.57 0.56 -3.1 0 1 850.54 1063.84
  Q 875.13 1064.25 899.25 1064.08
  C 905.17 1064.03 913.56 1063.18 918.42 1059.41
  C 923.13 1055.76 924.38 1048.00 918.99 1044.28
  C 908.34 1036.92 889.01 1038.35 876.75 1038.62
  Q 855.50 1039.10 834.25 1039.45
  C 825.00 1039.61 814.94 1039.14 805.25 1039.09
  C 796.35 1039.05 785.83 1041.68 785.49 1052.76
  Q 785.20 1062.00 787.07 1080.24
  Q 789.11 1100.14 791.10 1120.04
  C 794.54 1154.38 791.19 1189.04 793.17 1223.51
  C 794.11 1239.77 816.36 1240.14 829.01 1241.18
  Q 835.09 1241.68 839.50 1241.01
  C 848.05 1239.72 855.96 1232.55 855.82 1223.25
  C 855.64 1210.77 854.02 1198.45 853.53 1186.00
  Q 852.96 1171.28 854.87 1142.82
  Q 854.90 1142.33 855.39 1142.30"
/>
<path stroke="#a94a18" vector-effect="non-scaling-stroke" d="
  M 898.5200 1064.3250
  A 2.88 0.12 -0.1 0 0 895.6398 1064.2100
  A 2.88 0.12 -0.1 0 0 892.7600 1064.3350
  A 2.88 0.12 -0.1 0 0 895.6402 1064.4500
  A 2.88 0.12 -0.1 0 0 898.5200 1064.3250"
/>
<path stroke="#a94a18" vector-effect="non-scaling-stroke" d="
  M 671.23 317.22
  A 34.15 34.15 0.0 0 0 637.08 283.07
  A 34.15 34.15 0.0 0 0 602.93 317.22
  A 34.15 34.15 0.0 0 0 637.08 351.37
  A 34.15 34.15 0.0 0 0 671.23 317.22"
/>
<path stroke="#a94a18" vector-effect="non-scaling-stroke" d="
  M 937.67 317.43
  A 34.31 34.31 0.0 0 0 903.36 283.12
  A 34.31 34.31 0.0 0 0 869.05 317.43
  A 34.31 34.31 0.0 0 0 903.36 351.74
  A 34.31 34.31 0.0 0 0 937.67 317.43"
/>
<path stroke="#a98284" vector-effect="non-scaling-stroke" d="
  M 762.30 443.25
  C 762.62 471.66 754.03 499.96 723.25 508.01
  C 693.71 515.73 661.82 503.85 650.14 474.23
  C 645.50 462.46 645.33 451.25 646.51 438.75
  Q 646.66 437.12 645.59 437.26
  A 0.56 0.53 16.8 0 0 645.23 437.44
  Q 644.19 438.63 643.52 440.05
  C 631.73 465.03 633.50 490.79 652.15 511.87
  C 658.01 518.49 666.21 525.64 670.24 533.23
  Q 672.09 536.72 675.79 545.59
  C 690.50 580.87 721.13 608.25 760.13 612.20
  C 808.46 617.11 849.03 585.43 865.79 541.77
  C 867.19 538.15 868.83 531.26 871.87 528.86
  C 900.41 506.36 914.36 476.76 897.31 441.45
  Q 896.57 439.91 895.02 440.09
  A 1.28 1.28 0.0 0 0 893.88 441.42
  Q 894.05 445.76 894.24 449.64
  C 896.04 486.89 862.43 515.59 825.74 510.25
  C 789.78 505.02 772.87 473.09 778.54 439.30
  C 779.47 433.77 781.17 429.50 786.40 427.61
  C 803.49 421.43 822.17 414.87 833.91 401.91
  C 839.64 395.58 843.43 384.93 839.22 376.77
  C 832.93 364.60 816.18 358.20 803.52 355.44
  Q 768.02 347.69 732.79 356.41
  C 720.16 359.53 705.37 366.60 701.30 379.24
  C 693.17 404.48 733.06 420.59 749.99 426.56
  C 758.83 429.68 762.19 433.80 762.30 443.25"
/>
<path stroke="#a98284" vector-effect="non-scaling-stroke" d="
  M 649.9173 316.6695
  A 9.43 8.02 68.1 0 0 653.8412 304.9286
  A 9.43 8.02 68.1 0 0 642.8827 299.1705
  A 9.43 8.02 68.1 0 0 638.9588 310.9114
  A 9.43 8.02 68.1 0 0 649.9173 316.6695"
/>
<path stroke="#936b6c" vector-effect="non-scaling-stroke" d="
  M 645.3918 335.6543
  A 4.58 4.02 78.9 0 0 648.4548 330.3861
  A 4.58 4.02 78.9 0 0 643.6282 326.6657
  A 4.58 4.02 78.9 0 0 640.5652 331.9339
  A 4.58 4.02 78.9 0 0 645.3918 335.6543"
/>
<path stroke="#a98284" vector-effect="non-scaling-stroke" d="
  M 890.8597 316.4383
  A 9.17 7.78 111.9 0 0 901.4986 310.8318
  A 9.17 7.78 111.9 0 0 897.7003 299.4217
  A 9.17 7.78 111.9 0 0 887.0614 305.0282
  A 9.17 7.78 111.9 0 0 890.8597 316.4383"
/>
<path stroke="#936b6c" vector-effect="non-scaling-stroke" d="
  M 896.6486 335.2600
  A 4.21 3.53 82.1 0 0 899.5665 330.6048
  A 4.21 3.53 82.1 0 0 895.4914 326.9200
  A 4.21 3.53 82.1 0 0 892.5735 331.5752
  A 4.21 3.53 82.1 0 0 896.6486 335.2600"
/>
<path stroke="#a94636" vector-effect="non-scaling-stroke" d="
  M 840.20 548.59
  C 826.57 539.35 811.44 538.39 795.99 543.02
  C 785.16 546.26 771.89 550.77 762.25 547.97
  C 741.72 541.99 722.47 535.24 702.43 547.31
  C 699.31 549.19 697.28 551.86 699.71 555.26
  Q 701.80 558.20 706.89 563.36
  Q 719.54 576.22 735.58 583.85
  C 774.10 602.20 814.30 587.72 839.64 555.82
  C 841.73 553.19 843.83 551.05 840.20 548.59"
/>
<path stroke="#a98284" vector-effect="non-scaling-stroke" d="
  M 324.17 872.44
  L 323.48 900.63
  A 4.25 4.25 0.0 0 0 327.62 904.98
  L 328.99 905.01
  A 12.63 12.22 -88.6 0 0 341.52 892.69
  L 341.80 881.25
  A 12.63 12.22 -88.6 0 0 329.89 868.32
  L 328.52 868.29
  A 4.25 4.25 0.0 0 0 324.17 872.44"
/>
<path stroke="#a98284" vector-effect="non-scaling-stroke" d="
  M 1210.42 872.14
  L 1209.92 900.83
  A 4.13 4.13 0.0 0 0 1213.98 905.03
  L 1215.08 905.05
  A 12.57 12.57 0.0 0 0 1227.87 892.70
  L 1228.07 880.89
  A 12.57 12.57 0.0 0 0 1215.72 868.10
  L 1214.62 868.08
  A 4.13 4.13 0.0 0 0 1210.42 872.14"
/>
<path stroke="#a98284" vector-effect="non-scaling-stroke" d="
  M 1085.7255 881.3614
  A 10.74 10.74 0.0 0 0 1074.9480 870.6589
  L 1074.2080 870.6615
  A 10.74 10.74 0.0 0 0 1063.5056 881.4389
  L 1063.6745 929.8386
  A 10.74 10.74 0.0 0 0 1074.4520 940.5411
  L 1075.1920 940.5385
  A 10.74 10.74 0.0 0 0 1085.8944 929.7611
  L 1085.7255 881.3614"
/>
<path stroke="#a98284" vector-effect="non-scaling-stroke" d="
  M 1060.53 1131.57
  C 1059.79 1116.02 1060.64 1101.21 1056.82 1085.17
  C 1054.35 1074.85 1048.42 1066.55 1039.95 1060.31
  Q 1039.57 1060.02 1039.10 1060.17
  C 1034.71 1061.54 1028.61 1064.28 1026.63 1067.98
  Q 1023.63 1073.58 1021.86 1082.26
  Q 1020.52 1088.82 1016.95 1111.50
  C 1015.84 1118.51 1014.86 1126.76 1015.57 1133.82
  Q 1015.62 1134.39 1016.15 1134.16
  Q 1018.29 1133.20 1019.25 1133.20
  C 1037.09 1133.12 1048.13 1133.47 1060.03 1132.16
  Q 1060.55 1132.10 1060.53 1131.57"
/>
</g>
<path fill="#530609" d="
  M 766.57 1099.01
  C 766.17 1117.92 765.65 1135.25 762.92 1153.05
  Q 762.14 1158.11 762.36 1162.01
  C 762.59 1166.02 763.25 1170.15 763.24 1174.00
  C 763.20 1192.11 761.79 1207.49 761.07 1224.25
  Q 760.86 1229.33 759.99 1233.68
  C 758.34 1241.97 757.00 1245.32 751.36 1251.85
  Q 749.80 1253.64 744.49 1256.94
  C 737.39 1261.35 728.14 1263.43 720.00 1264.82
  C 708.16 1266.84 694.25 1264.04 682.73 1261.09
  Q 674.47 1258.98 669.85 1255.88
  Q 663.86 1251.88 659.89 1245.72
  C 656.42 1240.34 654.42 1230.12 655.10 1223.82
  Q 656.77 1208.36 657.56 1192.83
  C 657.82 1187.77 658.98 1181.36 658.78 1176.50
  C 658.03 1157.81 659.09 1139.81 661.08 1121.24
  Q 663.40 1099.65 662.97 1093.25
  C 662.09 1079.90 661.07 1067.54 661.63 1053.26
  C 661.86 1047.33 663.32 1041.95 664.78 1036.26
  C 665.84 1032.09 671.20 1024.87 672.77 1023.78
  C 676.56 1021.16 680.23 1017.94 684.77 1016.86
  C 694.97 1014.44 703.44 1012.56 713.82 1013.16
  Q 715.74 1013.27 713.94 1012.57
  C 700.46 1007.27 697.50 989.79 698.63 977.41
  Q 700.35 958.37 703.43 939.50
  Q 705.23 928.47 708.72 917.86
  Q 709.14 916.58 708.00 914.08
  Q 689.10 872.60 705.68 829.22
  Q 706.32 827.55 704.86 826.50
  Q 704.02 825.90 702.01 825.62
  Q 689.37 823.82 676.62 822.04
  A 1.47 1.46 4.4 0 0 674.95 823.46
  C 674.67 836.15 675.69 848.79 675.37 861.50
  C 674.93 879.13 669.24 894.47 651.90 901.65
  C 648.73 902.96 642.53 901.53 642.53 906.75
  Q 642.54 950.79 640.95 985.00
  C 640.38 997.31 636.34 1007.49 625.33 1013.58
  C 623.23 1014.74 620.58 1015.39 618.16 1016.14
  Q 617.51 1016.34 618.17 1016.49
  C 623.88 1017.81 630.20 1018.92 634.97 1021.75
  Q 641.89 1025.85 646.19 1032.64
  C 648.89 1036.91 649.78 1041.85 650.90 1047.01
  Q 651.52 1049.90 651.29 1053.04
  Q 649.27 1080.71 649.98 1095.50
  Q 652.08 1139.29 652.98 1183.12
  C 653.22 1194.51 651.88 1205.93 651.54 1217.32
  Q 651.40 1221.94 650.61 1225.60
  C 649.75 1229.60 648.96 1235.52 646.61 1239.20
  C 644.49 1242.51 642.39 1245.85 639.58 1248.43
  C 631.55 1255.81 622.52 1257.65 612.17 1259.61
  C 605.82 1260.82 598.82 1260.65 592.08 1261.13
  C 585.67 1261.58 579.59 1259.85 573.44 1258.31
  C 559.76 1254.88 550.76 1244.08 546.36 1231.81
  Q 546.22 1231.45 546.15 1231.83
  Q 545.27 1236.45 544.18 1241.00
  Q 543.24 1244.97 541.28 1248.09
  C 537.90 1253.47 533.82 1255.94 529.13 1259.11
  C 525.83 1261.34 519.85 1262.11 515.93 1263.04
  Q 511.28 1264.14 506.97 1264.33
  Q 488.60 1265.12 470.90 1260.16
  C 464.57 1258.39 460.28 1255.64 455.63 1251.35
  C 453.05 1248.96 448.56 1243.25 447.55 1239.03
  C 446.52 1234.69 445.39 1230.21 445.01 1225.79
  Q 444.96 1225.29 444.79 1225.76
  C 441.48 1234.43 436.27 1242.08 428.84 1247.73
  C 423.36 1251.91 418.53 1254.87 411.77 1256.77
  C 400.83 1259.85 390.38 1261.48 379.00 1261.16
  C 365.28 1260.79 352.32 1262.77 337.98 1262.47
  C 324.55 1262.19 311.97 1260.23 299.19 1257.06
  C 289.37 1254.61 281.20 1252.49 273.74 1247.82
  C 262.84 1240.99 257.15 1235.31 251.10 1225.92
  C 245.08 1216.60 242.86 1202.87 242.21 1191.90
  Q 239.18 1140.61 238.81 1123.75
  Q 238.27 1098.67 240.30 1055.22
  C 240.81 1044.24 242.91 1032.73 250.46 1024.28
  C 253.55 1020.83 257.90 1018.20 261.88 1015.44
  Q 262.38 1015.09 261.80 1014.93
  C 242.76 1009.48 239.64 994.08 239.14 976.75
  Q 237.38 916.39 238.21 856.00
  Q 238.58 829.31 239.47 820.50
  C 242.18 793.61 283.39 792.20 303.01 791.63
  Q 305.91 791.54 305.38 788.51
  C 302.65 772.94 301.43 755.75 302.51 740.52
  C 304.85 707.52 321.12 681.87 345.56 660.32
  C 347.54 658.58 348.58 656.42 349.33 653.66
  C 355.74 630.02 363.81 607.33 375.12 585.57
  Q 397.87 541.82 436.67 511.42
  C 438.44 510.03 439.15 508.71 438.68 506.34
  Q 422.17 423.65 446.51 343.00
  Q 447.27 340.50 445.53 337.78
  C 429.07 311.98 413.68 286.71 405.41 256.94
  C 389.19 198.49 374.61 69.12 460.52 51.29
  C 479.00 47.46 495.75 47.33 514.10 49.17
  C 575.45 55.34 634.32 75.41 687.02 107.72
  Q 689.24 109.08 691.98 108.40
  Q 770.67 88.95 849.29 108.68
  C 850.78 109.05 852.61 108.49 854.04 107.61
  C 910.80 72.69 973.61 51.98 1040.25 48.20
  C 1053.33 47.46 1065.84 47.54 1078.66 50.52
  C 1131.25 62.75 1147.07 116.08 1147.55 163.26
  C 1147.88 196.32 1142.93 228.74 1133.60 260.38
  Q 1125.08 289.29 1109.04 315.01
  Q 1101.73 326.74 1094.59 338.58
  C 1093.60 340.23 1093.52 341.49 1094.10 343.44
  Q 1118.35 424.57 1101.52 507.76
  Q 1101.13 509.65 1103.37 511.39
  C 1131.27 533.07 1152.86 559.32 1168.38 591.15
  Q 1179.92 614.81 1187.16 640.14
  Q 1189.75 649.21 1191.80 653.93
  C 1195.03 661.35 1202.79 668.36 1208.55 674.19
  C 1239.62 705.65 1242.03 747.13 1234.72 788.24
  Q 1234.19 791.26 1237.01 791.85
  Q 1246.70 793.88 1256.32 796.14
  Q 1297.08 805.71 1309.50 845.55
  C 1327.19 902.29 1310.03 964.00 1245.52 978.85
  C 1244.05 979.19 1243.51 980.81 1243.52 982.29
  C 1243.62 997.40 1238.58 1009.65 1223.98 1015.33
  Q 1222.94 1015.73 1224.03 1015.98
  Q 1238.75 1019.34 1246.19 1031.87
  Q 1248.00 1034.92 1249.15 1039.75
  C 1250.21 1044.19 1251.57 1048.47 1251.34 1053.26
  C 1251.06 1058.81 1249.31 1065.53 1249.70 1069.75
  Q 1250.43 1077.62 1249.90 1085.50
  C 1248.91 1100.24 1247.44 1114.07 1247.16 1129.74
  C 1246.90 1144.26 1248.26 1159.05 1247.55 1173.23
  Q 1247.15 1181.38 1246.27 1189.69
  A 0.49 0.49 0.0 0 0 1247.01 1190.16
  Q 1247.45 1189.90 1248.14 1189.88
  Q 1258.94 1189.69 1269.73 1189.73
  Q 1275.14 1189.76 1280.16 1190.87
  C 1284.27 1191.78 1289.82 1192.54 1293.51 1194.51
  Q 1302.18 1199.16 1307.23 1207.30
  C 1310.24 1212.16 1311.65 1219.24 1312.62 1224.72
  C 1313.36 1228.86 1312.00 1233.24 1310.98 1237.22
  Q 1309.97 1241.15 1308.07 1243.87
  C 1301.68 1252.97 1293.38 1256.59 1282.31 1258.68
  Q 1277.15 1259.66 1271.10 1259.87
  Q 1252.88 1260.51 1203.50 1261.67
  Q 1190.36 1261.98 1180.58 1260.81
  C 1175.83 1260.25 1170.48 1258.63 1165.47 1257.51
  C 1160.49 1256.40 1156.56 1253.42 1152.59 1250.43
  C 1147.08 1246.31 1142.27 1238.73 1140.98 1232.06
  Q 1140.97 1232.01 1140.92 1232.03
  L 1140.64 1232.10
  Q 1140.53 1232.13 1140.52 1232.24
  Q 1139.67 1240.14 1136.04 1245.26
  C 1131.62 1251.48 1128.86 1255.55 1123.58 1259.15
  Q 1120.73 1261.09 1116.97 1262.00
  Q 1099.66 1266.16 1081.94 1264.60
  C 1074.88 1263.97 1067.57 1262.10 1060.51 1260.20
  C 1055.54 1258.86 1051.92 1256.08 1047.91 1253.03
  C 1044.50 1250.43 1040.05 1244.80 1038.78 1240.64
  Q 1037.67 1236.99 1037.16 1233.58
  A 0.33 0.32 46.7 0 0 1036.52 1233.56
  C 1035.60 1237.94 1034.78 1242.30 1032.42 1246.15
  C 1026.98 1255.04 1019.74 1260.79 1009.52 1263.15
  C 1005.63 1264.05 1001.58 1265.19 997.80 1265.68
  C 983.86 1267.47 972.70 1265.58 960.12 1262.41
  C 950.79 1260.06 939.26 1249.44 937.04 1239.53
  C 935.97 1234.73 934.80 1230.03 934.58 1225.08
  Q 933.63 1203.09 933.67 1181.08
  C 933.68 1170.57 933.02 1160.90 932.34 1150.78
  Q 932.30 1150.19 931.98 1150.69
  C 930.34 1153.18 926.09 1155.92 923.50 1157.35
  Q 920.51 1159.00 915.56 1160.16
  C 911.73 1161.05 908.13 1162.11 904.17 1162.28
  Q 890.45 1162.85 876.75 1163.51
  Q 876.25 1163.53 876.23 1164.02
  Q 875.46 1182.95 875.94 1189.50
  C 876.72 1200.31 878.22 1211.53 878.16 1222.33
  C 878.14 1226.55 876.82 1230.73 875.85 1234.93
  C 873.82 1243.62 867.20 1251.37 860.05 1256.32
  C 853.99 1260.52 846.36 1262.00 839.00 1263.28
  C 834.60 1264.05 831.81 1263.68 826.02 1263.24
  Q 813.73 1262.30 801.82 1259.29
  Q 792.94 1257.04 787.80 1253.66
  Q 781.27 1249.35 776.86 1242.75
  Q 774.66 1239.44 773.30 1234.28
  C 770.92 1225.21 770.51 1218.45 770.17 1207.68
  C 769.63 1190.33 770.16 1172.86 770.33 1155.50
  C 770.52 1136.47 768.92 1117.76 766.68 1099.01
  Q 766.59 1098.23 766.57 1099.01
  Z
  M 467.82 492.01
  Q 469.62 514.20 476.47 533.52
  Q 483.13 552.32 495.16 572.33
  C 549.63 662.95 651.70 709.06 754.50 712.75
  C 868.22 716.83 986.99 672.02 1046.09 570.09
  Q 1066.29 535.26 1072.61 495.51
  C 1097.47 365.15 1036.32 236.60 921.10 172.62
  Q 919.94 171.97 919.60 171.44
  Q 918.93 170.37 919.99 169.69
  Q 977.90 131.98 1045.58 121.35
  Q 1056.03 119.71 1060.47 120.53
  C 1075.66 123.34 1081.72 140.00 1085.77 152.98
  C 1094.66 181.52 1097.13 212.20 1094.73 241.00
  Q 1092.70 265.38 1088.58 289.09
  Q 1088.23 291.06 1089.64 289.64
  Q 1090.51 288.76 1091.51 286.76
  C 1112.29 245.28 1121.44 198.50 1117.46 152.27
  C 1115.73 132.15 1106.09 92.45 1085.68 83.56
  C 1071.48 77.37 1053.00 76.36 1037.75 77.24
  Q 1009.30 78.89 981.72 86.10
  Q 932.50 98.97 887.33 122.19
  C 879.09 126.42 869.88 133.07 862.95 136.93
  C 859.81 138.68 855.26 141.84 851.55 140.70
  Q 770.72 115.85 689.73 140.11
  Q 684.62 141.64 680.40 138.87
  C 631.61 106.82 575.61 85.21 517.49 79.58
  Q 491.86 77.09 471.75 79.29
  C 451.09 81.55 438.65 94.59 431.68 113.28
  C 423.04 136.46 420.87 163.13 422.66 187.50
  C 425.11 220.79 433.59 256.12 448.69 286.04
  Q 449.28 287.20 450.16 287.61
  A 0.72 0.72 0.0 0 0 451.18 286.88
  Q 450.51 280.47 449.53 274.74
  C 442.06 231.27 442.05 186.96 457.23 144.93
  C 461.54 133.02 466.14 124.45 478.15 121.30
  Q 483.74 119.82 494.38 120.98
  C 538.96 125.82 583.44 145.54 621.13 170.13
  Q 621.61 170.45 621.65 170.88
  A 0.61 0.60 73.0 0 1 621.34 171.47
  C 562.21 204.55 513.84 255.99 486.79 318.33
  Q 452.09 398.29 466.47 485.62
  Q 466.93 488.45 467.82 492.01
  Z
  M 501.74 157.39
  C 489.23 155.62 484.01 162.30 481.89 173.47
  Q 472.20 224.35 476.62 277.09
  A 1.42 1.42 0.0 0 0 478.88 278.12
  Q 479.66 277.56 480.54 276.00
  Q 506.97 228.98 545.19 190.94
  Q 551.78 184.37 558.54 177.95
  A 0.93 0.93 0.0 0 0 558.43 176.51
  C 557.83 176.09 557.00 175.25 556.36 174.91
  Q 530.54 161.48 501.74 157.39
  Z
  M 1058.25 172.00
  C 1052.36 140.47 995.72 169.25 982.25 176.17
  A 1.27 1.27 0.0 0 0 981.96 178.23
  Q 1028.95 221.86 1060.52 277.44
  Q 1061.24 278.71 1062.23 279.00
  A 1.15 1.14 10.7 0 0 1063.69 278.01
  C 1067.15 242.39 1064.80 207.02 1058.25 172.00
  Z
  M 393.11 613.67
  Q 388.86 623.23 386.78 633.54
  A 0.96 0.95 -65.8 0 0 387.13 634.49
  Q 388.19 635.34 390.02 634.79
  Q 441.17 619.25 494.27 630.37
  Q 496.17 630.77 496.71 630.55
  Q 499.14 629.56 497.35 627.65
  Q 491.27 621.10 485.92 614.85
  Q 459.91 584.41 445.62 546.05
  Q 444.76 543.73 442.72 545.13
  Q 442.28 545.43 440.95 546.69
  C 421.01 565.65 404.01 589.17 393.11 613.67
  Z
  M 1093.42 548.70
  Q 1077.98 592.03 1044.64 626.41
  Q 1043.41 627.69 1043.06 629.70
  A 0.57 0.57 0.0 0 0 1043.48 630.35
  Q 1045.19 630.80 1046.76 630.44
  C 1080.77 622.77 1116.42 625.41 1149.78 634.34
  Q 1151.40 634.77 1152.79 634.94
  A 1.30 1.30 0.0 0 0 1154.18 633.22
  Q 1137.28 584.14 1100.78 547.46
  C 1097.74 544.41 1095.07 544.09 1093.42 548.70
  Z
  M 335.01 780.22
  Q 336.75 796.57 344.46 809.25
  Q 360.04 834.86 391.13 834.49
  A 1.60 1.60 0.0 0 0 392.62 832.36
  L 385.66 812.64
  C 378.58 785.32 377.50 755.23 389.10 729.07
  Q 389.62 727.92 390.58 727.38
  A 0.52 0.52 0.0 0 1 391.36 727.83
  Q 391.38 735.61 391.28 743.00
  Q 391.05 759.95 394.60 776.53
  Q 398.76 795.96 408.70 812.78
  Q 410.46 815.05 413.99 818.99
  Q 430.46 837.35 455.24 836.33
  C 492.80 834.79 508.82 793.38 508.21 761.48
  C 508.52 750.44 510.19 739.62 511.42 728.53
  A 1.04 1.03 -70.6 0 1 513.00 727.77
  Q 513.62 728.16 514.16 729.35
  C 519.01 740.03 521.89 751.37 521.53 763.19
  Q 521.21 773.62 520.71 784.03
  Q 519.33 801.76 518.54 819.49
  Q 518.46 821.39 519.33 822.54
  A 2.26 2.25 -31.1 0 0 522.09 823.22
  C 547.70 811.13 562.83 787.07 564.77 759.00
  Q 565.42 749.69 563.80 741.21
  Q 563.30 735.33 562.25 729.51
  C 553.70 682.43 511.10 662.08 467.51 659.38
  C 421.77 656.56 356.23 668.31 337.07 717.47
  C 329.17 737.76 330.77 759.33 335.01 780.22
  Z
  M 976.63 739.81
  C 976.42 743.58 975.76 747.70 975.65 751.06
  C 974.61 783.09 989.97 808.29 1017.61 823.73
  C 1019.42 824.74 1022.95 824.45 1022.49 821.50
  Q 1020.01 805.71 1018.82 791.94
  C 1017.91 772.37 1016.92 749.02 1025.59 730.88
  Q 1026.19 729.63 1027.31 729.52
  A 1.55 1.55 0.0 0 1 1029.02 730.94
  C 1029.46 736.53 1030.52 742.21 1030.66 747.54
  Q 1030.77 751.77 1030.79 755.65
  C 1030.08 791.37 1046.99 838.05 1091.25 835.02
  C 1108.21 833.86 1121.94 827.43 1131.78 812.69
  Q 1134.65 808.59 1136.48 804.69
  Q 1145.10 786.24 1147.56 764.25
  C 1149.01 751.37 1149.53 738.53 1150.46 725.61
  A 0.59 0.59 0.0 0 1 1151.27 725.11
  L 1151.99 725.40
  A 1.07 1.07 0.0 0 1 1152.62 726.11
  C 1160.31 753.71 1161.85 782.47 1154.92 810.59
  L 1147.41 832.66
  A 1.78 1.78 0.0 0 0 1148.90 835.00
  Q 1151.10 835.25 1154.01 834.97
  C 1184.26 832.11 1203.44 809.33 1205.21 779.75
  Q 1207.41 769.32 1207.96 763.99
  Q 1208.60 757.83 1208.45 748.97
  C 1207.62 697.79 1168.14 668.68 1121.27 661.33
  Q 1070.49 653.36 1022.72 671.77
  C 992.68 683.34 979.01 709.08 976.63 739.81
  Z
  M 906.44 725.96
  Q 770.26 766.95 634.25 725.92
  Q 614.69 718.47 595.10 711.36
  C 592.77 710.52 591.39 711.89 591.95 714.27
  C 594.86 726.68 596.80 738.94 597.77 751.65
  C 598.73 764.10 599.48 774.50 614.92 774.49
  C 716.52 808.65 826.97 809.37 928.08 773.40
  L 937.91 770.86
  A 2.75 2.75 0.0 0 0 939.94 768.59
  L 948.11 711.24
  Q 948.27 710.14 947.23 710.53
  L 906.44 725.96
  Z
  M 390.50 864.45
  C 360.66 864.89 334.54 850.81 319.00 825.26
  C 318.18 823.90 316.24 822.98 314.45 823.13
  Q 294.45 824.75 274.53 826.21
  Q 270.76 826.49 270.76 830.27
  L 270.82 984.04
  A 2.22 2.22 0.0 0 0 273.04 986.26
  L 323.01 986.26
  Q 325.58 986.26 325.53 983.69
  Q 325.29 969.81 324.57 956.13
  C 324.37 952.27 323.78 949.14 328.58 949.08
  C 356.58 948.75 388.19 939.63 395.36 908.23
  C 398.43 894.76 397.46 881.90 395.08 868.32
  C 394.61 865.59 393.21 864.41 390.50 864.45
  Z
  M 1210.74 953.51
  C 1210.57 950.06 1212.81 949.24 1215.75 949.03
  C 1223.77 948.45 1232.07 948.50 1240.00 947.16
  C 1283.34 939.85 1288.87 892.67 1279.29 858.07
  C 1272.05 831.95 1250.54 821.11 1224.48 823.93
  C 1222.32 824.16 1221.26 825.25 1220.20 826.95
  Q 1204.65 851.61 1176.49 859.45
  Q 1168.44 861.70 1160.05 864.21
  A 3.43 3.43 0.0 0 0 1157.61 867.48
  L 1157.21 982.48
  A 3.77 3.76 0.2 0 0 1160.98 986.26
  L 1209.75 986.25
  Q 1212.15 986.25 1212.06 983.85
  Q 1211.51 968.61 1210.74 953.51
  Z
  M 610.20 872.31
  A 1.46 1.45 14.1 0 1 611.46 871.56
  L 638.94 871.26
  A 3.61 3.61 0.0 0 0 642.51 867.66
  Q 642.53 848.75 642.25 829.61
  C 642.17 824.22 638.91 824.54 634.26 824.47
  Q 603.16 823.98 572.64 823.95
  A 4.08 4.08 0.0 0 0 569.72 825.18
  Q 566.12 828.86 562.06 832.55
  C 550.57 842.98 538.96 848.06 524.11 852.10
  A 3.54 3.53 82.4 0 0 521.51 855.51
  L 521.48 867.19
  Q 521.48 869.91 524.20 870.04
  L 551.39 871.30
  Q 553.56 871.41 553.58 873.58
  L 554.47 983.62
  A 2.66 2.65 89.8 0 0 557.12 986.26
  L 607.51 986.27
  A 1.56 1.56 0.0 0 0 609.07 984.72
  Q 609.39 929.72 609.66 874.75
  Q 609.66 873.29 610.20 872.31
  Z
  M 937.56 880.76
  Q 937.01 883.61 934.35 883.53
  Q 929.16 883.36 924.52 883.20
  Q 920.84 883.08 920.81 879.39
  Q 920.60 854.77 919.95 829.75
  C 919.89 827.44 919.70 824.22 916.50 824.22
  Q 892.16 824.19 868.44 824.22
  A 3.76 3.75 89.9 0 0 864.69 827.99
  L 865.04 982.53
  Q 865.04 986.26 868.78 986.26
  L 916.77 986.26
  A 3.33 3.33 0.0 0 0 920.10 982.98
  L 920.95 932.93
  A 3.39 3.39 0.0 0 1 924.32 929.59
  L 933.19 929.55
  Q 937.25 929.52 937.33 933.58
  Q 937.83 957.36 937.94 981.25
  Q 937.96 983.77 939.05 985.34
  A 2.12 2.10 72.7 0 0 940.79 986.26
  L 989.99 986.27
  A 3.01 3.01 0.0 0 0 993.00 983.26
  L 993.11 846.48
  A 3.00 3.00 0.0 0 0 992.05 844.19
  L 969.54 825.18
  A 4.69 4.67 64.8 0 0 966.50 824.08
  L 940.97 824.31
  A 3.24 3.23 89.9 0 0 937.77 827.53
  L 937.58 880.54
  A 1.28 1.17 -42.4 0 1 937.56 880.76
  Z
  M 760.92 918.66
  Q 773.68 923.84 793.02 929.50
  Q 796.91 930.64 797.65 934.28
  C 800.24 947.17 776.45 944.77 769.98 943.60
  Q 753.72 940.66 738.40 935.58
  Q 736.22 934.86 735.92 937.14
  Q 733.26 957.88 730.51 978.75
  Q 730.17 981.35 730.13 983.66
  A 1.02 1.01 -86.6 0 0 731.03 984.68
  C 756.68 987.43 781.97 988.71 807.66 985.81
  C 841.28 982.03 860.54 951.62 850.42 919.76
  C 841.51 891.75 816.43 887.59 792.63 878.65
  Q 787.01 876.54 781.41 874.41
  C 778.25 873.21 777.13 870.07 779.44 867.33
  C 788.49 856.54 824.83 868.42 836.24 872.79
  C 838.33 873.59 839.76 873.58 840.13 871.01
  Q 842.88 851.36 845.60 831.70
  C 846.28 826.73 836.96 826.44 833.76 826.74
  Q 793.85 830.51 753.74 830.42
  C 742.31 830.39 736.82 836.68 733.31 847.26
  C 724.06 875.13 731.64 906.76 760.92 918.66
  Z
  M 1015.30 856.52
  C 999.77 898.69 997.47 973.61 1056.30 985.65
  C 1070.05 988.46 1085.92 988.96 1098.97 984.74
  C 1146.51 969.40 1147.45 907.07 1139.29 868.24
  Q 1138.55 864.76 1135.25 864.21
  C 1123.80 862.32 1112.51 863.43 1099.57 864.57
  C 1088.62 865.53 1080.91 865.58 1071.26 863.46
  Q 1046.25 857.99 1021.03 853.55
  Q 1016.67 852.79 1015.30 856.52
  Z
  M 461.99 929.76
  C 462.08 927.53 463.98 926.34 465.75 926.40
  Q 478.25 926.83 490.75 927.05
  C 495.10 927.13 496.60 923.64 496.58 919.74
  Q 496.52 906.90 496.49 894.02
  C 496.47 888.43 495.69 885.29 489.49 885.17
  Q 479.14 884.96 468.79 885.03
  C 465.32 885.06 462.29 884.30 461.82 880.74
  C 461.26 876.51 461.45 871.27 467.25 871.30
  Q 489.40 871.41 511.97 871.50
  Q 515.03 871.51 515.01 868.46
  L 514.94 856.49
  A 1.61 1.61 0.0 0 0 513.39 854.89
  Q 512.29 854.85 510.77 855.17
  Q 492.89 858.95 474.97 862.53
  C 463.00 864.93 452.81 866.04 441.19 864.81
  C 431.32 863.77 421.58 862.84 411.75 863.01
  C 408.15 863.07 408.10 865.64 408.10 868.48
  Q 408.21 925.85 408.57 983.48
  A 2.72 2.72 0.0 0 0 411.27 986.18
  L 513.47 986.73
  Q 515.20 986.74 515.20 985.01
  L 515.20 941.76
  Q 515.20 940.03 513.47 940.03
  Q 490.38 940.00 466.38 939.80
  C 460.97 939.75 461.80 934.25 461.99 929.76
  Z
  M 353.26 1026.34
  C 355.83 1023.07 361.96 1019.24 365.96 1018.23
  Q 378.77 1015.00 391.90 1013.28
  Q 392.53 1013.20 391.99 1012.87
  C 380.37 1005.75 376.46 992.97 376.45 979.98
  C 376.45 977.43 376.18 975.24 373.01 975.80
  Q 365.88 977.06 359.43 978.63
  A 2.49 2.47 83.6 0 0 357.54 981.02
  C 357.34 999.49 350.68 1014.16 330.57 1017.52
  Q 329.71 1017.66 330.39 1018.21
  C 332.74 1020.11 335.55 1021.81 337.52 1023.98
  Q 339.99 1026.71 341.97 1029.81
  C 344.44 1033.69 345.03 1038.41 346.06 1042.94
  A 0.16 0.16 0.0 0 0 346.37 1042.93
  C 347.22 1038.89 347.94 1034.12 350.21 1030.60
  Q 351.63 1028.40 353.26 1026.34
  Z
  M 1140.18 1187.37
  Q 1140.12 1188.93 1140.37 1190.26
  Q 1140.50 1190.91 1140.58 1190.26
  Q 1141.82 1180.67 1142.23 1170.75
  C 1143.76 1134.62 1146.13 1098.38 1146.22 1062.21
  Q 1146.23 1055.92 1146.50 1049.61
  C 1146.71 1044.44 1148.62 1036.21 1151.23 1031.96
  Q 1156.44 1023.48 1165.21 1019.32
  Q 1166.81 1018.56 1165.04 1018.54
  C 1155.50 1018.46 1146.47 1017.40 1138.60 1010.65
  C 1136.91 1009.20 1133.56 1004.31 1130.58 1005.83
  Q 1112.41 1015.13 1092.95 1018.64
  C 1091.84 1018.84 1090.44 1018.58 1089.19 1018.79
  Q 1088.38 1018.93 1089.10 1019.34
  C 1111.88 1032.41 1129.45 1048.00 1136.53 1074.40
  Q 1141.06 1091.33 1142.16 1105.12
  C 1144.24 1131.32 1141.38 1159.98 1140.18 1187.37
  Z
  M 1018.13 1006.59
  L 1010.07 1012.30
  A 0.11 0.11 0.0 0 0 1010.15 1012.49
  Q 1018.93 1011.03 1027.22 1010.20
  Q 1028.46 1010.08 1027.28 1009.68
  Q 1024.55 1008.75 1021.47 1007.28
  C 1020.51 1006.82 1019.02 1006.86 1018.52 1006.57
  Q 1018.32 1006.46 1018.13 1006.59
  Z
  M 816.69 1016.59
  Q 814.58 1016.99 816.73 1017.04
  Q 835.62 1017.47 855.50 1016.72
  Q 857.59 1016.64 859.13 1016.46
  Q 860.17 1016.33 859.16 1016.07
  Q 851.41 1014.01 845.40 1009.68
  Q 843.57 1008.37 841.50 1009.23
  Q 829.45 1014.22 816.69 1016.59
  Z
  M 526.42 1016.55
  Q 525.99 1016.70 525.53 1016.96
  Q 525.20 1017.15 525.56 1017.27
  C 528.85 1018.37 533.24 1019.01 536.14 1020.85
  Q 538.52 1022.35 542.96 1025.65
  C 546.36 1028.17 548.44 1030.99 550.77 1034.42
  Q 551.15 1034.98 551.49 1034.40
  C 554.17 1029.69 557.13 1025.87 561.65 1022.64
  Q 564.10 1020.89 566.56 1019.06
  Q 566.96 1018.76 566.46 1018.76
  Q 551.77 1018.51 538.38 1012.65
  C 536.64 1011.89 535.33 1011.79 533.79 1012.80
  Q 529.95 1015.33 526.42 1016.55
  Z
  M 775.63 1026.18
  C 777.71 1024.50 784.01 1019.89 786.60 1019.88
  Q 786.63 1019.88 786.63 1019.89
  Q 786.63 1019.89 786.63 1019.91
  Q 786.63 1019.94 786.60 1019.95
  Q 762.73 1021.32 739.18 1018.05
  A 0.02 0.02 0.0 0 0 739.17 1018.08
  C 748.10 1022.46 755.67 1028.12 760.66 1037.53
  C 762.44 1040.89 763.14 1044.75 763.81 1048.44
  Q 764.02 1049.62 764.19 1048.43
  C 765.40 1039.75 768.69 1031.78 775.63 1026.18
  Z
  M 921.05 1097.89
  C 926.45 1100.91 932.65 1106.82 934.95 1112.73
  Q 935.38 1113.83 935.55 1112.66
  Q 937.23 1101.08 938.46 1089.79
  C 939.43 1080.88 940.81 1074.37 942.88 1066.02
  C 948.49 1043.34 964.13 1027.26 985.69 1018.86
  Q 985.93 1018.77 985.68 1018.78
  C 983.14 1018.91 980.49 1019.46 978.10 1019.50
  C 967.56 1019.68 954.10 1018.69 946.64 1018.51
  Q 930.00 1018.11 914.03 1018.50
  Q 909.93 1018.60 913.98 1019.23
  C 924.84 1020.94 933.98 1025.85 940.04 1034.98
  C 942.77 1039.10 943.51 1044.41 944.59 1049.27
  A 9.12 9.02 45.9 0 1 944.55 1053.43
  C 943.39 1058.15 942.65 1063.44 940.27 1067.54
  C 935.59 1075.61 927.87 1080.87 918.95 1083.22
  C 910.65 1085.41 903.34 1086.53 894.26 1086.52
  Q 884.45 1086.50 874.72 1086.41
  Q 874.42 1086.41 874.43 1086.71
  L 874.65 1092.04
  Q 874.67 1092.38 875.01 1092.36
  C 883.84 1091.88 896.28 1091.00 903.95 1092.86
  C 909.66 1094.25 916.26 1095.20 921.05 1097.89
  Z
  M 468.76 1020.00
  Q 468.93 1019.91 469.13 1019.88
  A 0.02 0.02 0.0 0 0 469.12 1019.84
  Q 452.18 1020.29 435.22 1019.78
  Q 433.63 1019.73 434.99 1020.56
  C 441.34 1024.41 446.91 1030.85 448.38 1038.45
  Q 448.54 1039.26 448.94 1038.54
  C 454.09 1029.45 459.34 1024.78 468.76 1020.00
  Z
  M 966.53 1064.51
  C 964.49 1069.67 962.42 1075.61 961.77 1081.26
  C 959.21 1103.49 955.67 1125.67 954.82 1148.06
  C 954.54 1155.50 955.97 1164.49 955.94 1170.76
  Q 955.83 1197.26 956.86 1223.75
  Q 957.06 1229.00 957.36 1230.63
  C 960.43 1247.11 989.39 1244.63 1000.65 1242.85
  C 1014.40 1240.68 1015.90 1231.16 1015.31 1219.51
  C 1014.29 1199.62 1013.54 1179.92 1014.52 1160.11
  Q 1014.59 1158.76 1015.94 1158.84
  Q 1037.95 1160.27 1059.96 1158.94
  Q 1061.01 1158.88 1060.98 1159.92
  C 1060.29 1181.48 1058.73 1203.05 1058.26 1224.68
  C 1058.12 1231.03 1059.25 1235.02 1064.79 1237.92
  C 1077.11 1244.40 1096.70 1243.43 1110.53 1241.06
  Q 1111.03 1240.97 1111.38 1240.62
  C 1116.71 1235.36 1119.81 1230.88 1119.51 1223.01
  C 1119.13 1213.17 1117.75 1198.87 1117.98 1190.50
  C 1118.86 1158.40 1123.47 1125.16 1118.29 1093.25
  C 1116.51 1082.35 1112.78 1070.62 1106.44 1061.80
  C 1093.82 1044.25 1071.94 1033.35 1050.75 1032.22
  C 1023.83 1030.78 978.44 1034.31 966.53 1064.51
  Z
  M 264.63 1042.90
  C 264.03 1044.39 262.94 1047.08 262.85 1048.87
  C 261.41 1077.93 260.45 1113.78 262.16 1147.25
  Q 264.04 1184.11 265.02 1197.24
  Q 266.51 1217.20 283.37 1227.60
  Q 289.19 1231.20 292.98 1232.49
  Q 316.08 1240.37 341.76 1240.05
  C 354.12 1239.90 365.18 1238.77 376.74 1238.73
  C 386.91 1238.70 396.19 1238.99 405.76 1235.57
  Q 421.00 1230.13 425.53 1214.34
  C 427.48 1207.56 426.22 1201.48 426.64 1194.84
  Q 429.53 1149.47 428.80 1104.00
  C 428.56 1088.58 427.60 1072.81 428.20 1057.42
  C 428.51 1049.40 429.33 1041.26 420.76 1037.95
  C 408.55 1033.22 392.43 1034.73 379.67 1037.54
  C 374.71 1038.64 369.19 1038.90 368.12 1044.88
  Q 366.81 1052.25 366.83 1059.75
  C 366.87 1078.94 366.92 1098.11 368.52 1117.25
  Q 369.24 1125.91 368.36 1138.26
  C 366.69 1161.71 366.40 1182.13 363.97 1208.59
  Q 363.93 1209.01 363.51 1209.03
  L 332.23 1210.41
  Q 331.66 1210.43 331.36 1209.94
  Q 327.67 1203.83 327.08 1196.01
  Q 323.75 1152.08 322.56 1115.50
  C 321.90 1095.25 323.25 1074.97 324.13 1054.75
  C 324.32 1050.48 324.99 1044.62 322.88 1041.13
  C 317.23 1031.77 289.84 1032.87 280.51 1033.54
  C 274.15 1034.00 267.19 1036.56 264.63 1042.90
  Z
  M 728.09 1240.25
  C 735.65 1237.19 738.24 1235.33 738.69 1226.34
  C 739.75 1205.00 741.76 1183.78 740.11 1162.42
  Q 739.80 1158.39 740.44 1154.11
  C 743.58 1133.11 744.20 1110.40 744.32 1089.51
  C 744.37 1079.60 743.53 1068.85 743.01 1058.49
  Q 742.67 1051.45 741.13 1048.24
  C 733.96 1033.34 707.63 1034.21 694.56 1036.98
  Q 685.39 1038.93 684.34 1047.61
  Q 683.14 1057.46 684.08 1075.25
  C 684.50 1083.18 685.42 1091.19 685.12 1098.93
  C 684.55 1113.30 682.81 1127.67 681.56 1142.00
  Q 680.17 1157.98 680.96 1174.00
  C 681.25 1179.70 680.21 1188.01 679.95 1192.00
  C 679.31 1201.81 678.86 1211.63 677.58 1221.38
  Q 676.87 1226.77 677.26 1229.76
  C 678.30 1237.63 686.17 1239.92 692.76 1241.06
  C 704.67 1243.12 716.51 1244.93 728.09 1240.25
  Z
  M 1221.97 1212.87
  Q 1221.54 1212.88 1221.59 1212.45
  Q 1223.66 1195.52 1224.98 1178.50
  Q 1225.90 1166.72 1225.46 1158.25
  Q 1224.07 1131.73 1225.92 1108.76
  C 1226.95 1095.87 1227.91 1083.38 1227.57 1070.44
  C 1227.43 1065.11 1228.26 1060.03 1228.84 1054.75
  C 1229.68 1047.17 1227.83 1040.12 1219.91 1037.62
  C 1210.17 1034.54 1170.07 1030.87 1168.88 1048.01
  Q 1168.56 1052.58 1168.56 1053.75
  C 1168.57 1093.23 1166.33 1132.78 1164.40 1172.21
  C 1163.63 1187.81 1160.62 1203.38 1160.81 1218.99
  Q 1160.99 1233.78 1175.02 1237.32
  C 1191.18 1241.39 1212.66 1239.04 1230.99 1238.81
  C 1247.11 1238.61 1262.17 1237.91 1277.74 1237.26
  Q 1283.39 1237.03 1288.25 1233.08
  C 1292.60 1229.54 1290.19 1221.49 1287.53 1217.86
  C 1283.68 1212.62 1276.55 1212.09 1270.25 1212.08
  Q 1245.99 1212.01 1221.97 1212.87
  Z
  M 571.20 1113.41
  A 0.33 0.33 0.0 0 1 570.57 1113.58
  Q 555.50 1082.87 537.05 1053.67
  C 532.08 1045.79 528.37 1039.94 520.03 1038.50
  C 509.05 1036.61 474.54 1033.97 468.76 1048.74
  Q 467.66 1051.56 468.06 1057.86
  Q 469.94 1087.51 471.58 1117.17
  Q 472.08 1126.18 471.72 1133.34
  C 471.26 1142.60 470.27 1152.95 470.55 1163.34
  C 470.81 1173.23 469.86 1182.05 469.08 1191.51
  C 468.49 1198.67 469.85 1208.04 468.48 1217.29
  C 466.90 1228.01 466.23 1235.79 477.85 1239.32
  C 487.92 1242.38 499.33 1242.32 509.74 1241.82
  C 514.15 1241.60 518.92 1240.16 522.00 1236.83
  C 524.01 1234.65 524.26 1229.82 524.49 1227.25
  C 526.36 1206.06 526.50 1183.26 527.47 1161.26
  Q 527.76 1154.61 528.08 1148.32
  Q 528.21 1145.77 529.27 1148.09
  Q 529.50 1148.60 530.00 1149.59
  Q 541.65 1172.66 553.63 1195.56
  Q 560.86 1209.37 567.01 1223.70
  Q 569.88 1230.39 572.10 1232.70
  C 577.58 1238.40 584.45 1238.83 592.75 1238.68
  C 601.29 1238.52 611.14 1238.61 619.01 1235.53
  C 629.73 1231.34 629.28 1221.93 629.45 1212.08
  Q 629.52 1207.69 629.95 1202.43
  Q 631.11 1188.12 630.69 1173.75
  Q 629.53 1134.61 627.68 1095.50
  Q 626.97 1080.56 628.87 1054.95
  Q 629.33 1048.78 628.35 1046.14
  C 624.60 1035.90 600.27 1036.78 589.75 1036.36
  C 583.66 1036.11 575.39 1037.87 571.96 1043.56
  Q 570.55 1045.91 570.47 1050.69
  C 570.13 1071.59 569.65 1092.56 571.20 1113.41
  Z
  M 855.39 1142.30
  Q 879.18 1140.90 903.00 1140.29
  C 906.81 1140.19 912.33 1139.00 915.16 1136.25
  Q 916.41 1135.03 916.53 1132.96
  C 917.55 1114.88 904.33 1114.05 890.74 1114.27
  Q 872.43 1114.56 854.11 1115.90
  Q 853.59 1115.94 853.56 1115.42
  C 852.59 1098.34 852.10 1081.08 849.97 1064.47
  A 0.57 0.56 -3.1 0 1 850.54 1063.84
  Q 875.13 1064.25 899.25 1064.08
  C 905.17 1064.03 913.56 1063.18 918.42 1059.41
  C 923.13 1055.76 924.38 1048.00 918.99 1044.28
  C 908.34 1036.92 889.01 1038.35 876.75 1038.62
  Q 855.50 1039.10 834.25 1039.45
  C 825.00 1039.61 814.94 1039.14 805.25 1039.09
  C 796.35 1039.05 785.83 1041.68 785.49 1052.76
  Q 785.20 1062.00 787.07 1080.24
  Q 789.11 1100.14 791.10 1120.04
  C 794.54 1154.38 791.19 1189.04 793.17 1223.51
  C 794.11 1239.77 816.36 1240.14 829.01 1241.18
  Q 835.09 1241.68 839.50 1241.01
  C 848.05 1239.72 855.96 1232.55 855.82 1223.25
  C 855.64 1210.77 854.02 1198.45 853.53 1186.00
  Q 852.96 1171.28 854.87 1142.82
  Q 854.90 1142.33 855.39 1142.30
  Z
  M 898.5200 1064.3250
  A 2.88 0.12 -0.1 0 0 895.6398 1064.2100
  A 2.88 0.12 -0.1 0 0 892.7600 1064.3350
  A 2.88 0.12 -0.1 0 0 895.6402 1064.4500
  A 2.88 0.12 -0.1 0 0 898.5200 1064.3250
  Z
  M 345.3336 1097.7451
  A 0.27 0.27 0.0 0 0 345.0548 1097.4842
  L 344.6351 1097.4982
  A 0.27 0.27 0.0 0 0 344.3742 1097.7770
  L 345.7064 1137.9349
  A 0.27 0.27 0.0 0 0 345.9852 1138.1958
  L 346.4049 1138.1818
  A 0.27 0.27 0.0 0 0 346.6658 1137.9030
  L 345.3336 1097.7451
  Z
  M 1036.63 1198.37
  C 1036.61 1197.80 1037.09 1196.99 1037.11 1196.26
  Q 1037.30 1189.41 1037.83 1182.62
  Q 1037.88 1181.97 1037.23 1181.96
  L 1036.74 1181.96
  A 0.50 0.50 0.0 0 0 1036.23 1182.47
  Q 1036.28 1190.35 1036.63 1198.37
  Q 1036.63 1198.38 1036.63 1198.38
  Q 1036.63 1198.38 1036.63 1198.38
  Q 1036.63 1198.38 1036.63 1198.37
  Z"
/>
<g>
<path fill="#ff8e27" d="
  M 1072.61 495.51
  Q 1069.07 478.38 1067.37 461.33
  Q 1067.34 461.04 1067.19 460.78
  L 1067.00 460.49
  C 1066.26 457.16 1066.34 453.61 1065.61 450.56
  C 1060.70 430.14 1051.73 408.51 1033.42 396.56
  C 1007.66 379.75 968.36 370.03 938.25 379.18
  C 926.57 382.73 912.86 388.81 904.68 391.67
  Q 894.62 395.19 888.99 395.78
  C 870.31 397.75 858.94 386.59 851.79 370.76
  C 844.59 354.82 837.12 335.33 827.96 318.28
  C 815.08 294.30 787.35 262.06 755.83 273.26
  C 740.76 278.62 727.69 293.95 719.43 307.71
  Q 707.08 328.27 699.60 345.66
  C 691.86 363.65 686.57 382.18 671.25 391.20
  C 657.81 399.11 639.18 393.95 625.67 388.88
  Q 619.17 386.44 603.75 380.96
  C 570.32 369.08 530.55 377.19 504.29 400.85
  Q 478.10 424.46 475.00 460.16
  L 467.82 492.01
  Q 466.93 488.45 466.47 485.62
  Q 452.09 398.29 486.79 318.33
  C 513.84 255.99 562.21 204.55 621.34 171.47
  A 0.61 0.60 73.0 0 0 621.65 170.88
  Q 621.61 170.45 621.13 170.13
  C 583.44 145.54 538.96 125.82 494.38 120.98
  Q 483.74 119.82 478.15 121.30
  C 466.14 124.45 461.54 133.02 457.23 144.93
  C 442.05 186.96 442.06 231.27 449.53 274.74
  Q 450.51 280.47 451.18 286.88
  A 0.72 0.72 0.0 0 1 450.16 287.61
  Q 449.28 287.20 448.69 286.04
  C 433.59 256.12 425.11 220.79 422.66 187.50
  C 420.87 163.13 423.04 136.46 431.68 113.28
  C 438.65 94.59 451.09 81.55 471.75 79.29
  Q 491.86 77.09 517.49 79.58
  C 575.61 85.21 631.61 106.82 680.40 138.87
  Q 684.62 141.64 689.73 140.11
  Q 770.72 115.85 851.55 140.70
  C 855.26 141.84 859.81 138.68 862.95 136.93
  C 869.88 133.07 879.09 126.42 887.33 122.19
  Q 932.50 98.97 981.72 86.10
  Q 1009.30 78.89 1037.75 77.24
  C 1053.00 76.36 1071.48 77.37 1085.68 83.56
  C 1106.09 92.45 1115.73 132.15 1117.46 152.27
  C 1121.44 198.50 1112.29 245.28 1091.51 286.76
  Q 1090.51 288.76 1089.64 289.64
  Q 1088.23 291.06 1088.58 289.09
  Q 1092.70 265.38 1094.73 241.00
  C 1097.13 212.20 1094.66 181.52 1085.77 152.98
  C 1081.72 140.00 1075.66 123.34 1060.47 120.53
  Q 1056.03 119.71 1045.58 121.35
  Q 977.90 131.98 919.99 169.69
  Q 918.93 170.37 919.60 171.44
  Q 919.94 171.97 921.10 172.62
  C 1036.32 236.60 1097.47 365.15 1072.61 495.51
  Z
  M 671.23 317.22
  A 34.15 34.15 0.0 0 0 637.08 283.07
  A 34.15 34.15 0.0 0 0 602.93 317.22
  A 34.15 34.15 0.0 0 0 637.08 351.37
  A 34.15 34.15 0.0 0 0 671.23 317.22
  Z
  M 937.67 317.43
  A 34.31 34.31 0.0 0 0 903.36 283.12
  A 34.31 34.31 0.0 0 0 869.05 317.43
  A 34.31 34.31 0.0 0 0 903.36 351.74
  A 34.31 34.31 0.0 0 0 937.67 317.43
  Z"
/>
<path fill="#ff8663" d="
  M 481.89 173.47
  C 484.01 162.30 489.23 155.62 501.74 157.39
  Q 530.54 161.48 556.36 174.91
  C 557.00 175.25 557.83 176.09 558.43 176.51
  A 0.93 0.93 0.0 0 1 558.54 177.95
  Q 551.78 184.37 545.19 190.94
  Q 506.97 228.98 480.54 276.00
  Q 479.66 277.56 478.88 278.12
  A 1.42 1.42 0.0 0 1 476.62 277.09
  Q 472.20 224.35 481.89 173.47
  Z"
/>
<path fill="#ff8663" d="
  M 982.25 176.17
  C 995.72 169.25 1052.36 140.47 1058.25 172.00
  C 1064.80 207.02 1067.15 242.39 1063.69 278.01
  A 1.15 1.14 10.7 0 1 1062.23 279.00
  Q 1061.24 278.71 1060.52 277.44
  Q 1028.95 221.86 981.96 178.23
  A 1.27 1.27 0.0 0 1 982.25 176.17
  Z"
/>
<path fill="#fefefe" d="
  M 1067.00 460.49
  L 1066.33 461.78
  Q 1066.20 462.01 1066.11 461.76
  Q 1066.06 461.63 1065.99 461.49
  A 0.27 0.26 -51.3 0 0 1065.50 461.55
  C 1064.06 467.13 1063.64 472.16 1060.85 477.93
  C 1057.24 485.40 1052.18 492.81 1049.24 499.74
  Q 1044.96 509.80 1040.40 519.75
  C 996.96 614.58 908.74 676.24 805.24 687.03
  C 758.42 691.92 710.45 685.69 665.79 670.69
  C 604.16 649.98 552.93 610.37 518.64 555.88
  Q 503.28 531.46 495.10 510.92
  Q 485.19 486.06 475.00 460.16
  Q 478.10 424.46 504.29 400.85
  C 530.55 377.19 570.32 369.08 603.75 380.96
  Q 619.17 386.44 625.67 388.88
  C 639.18 393.95 657.81 399.11 671.25 391.20
  C 686.57 382.18 691.86 363.65 699.60 345.66
  Q 707.08 328.27 719.43 307.71
  C 727.69 293.95 740.76 278.62 755.83 273.26
  C 787.35 262.06 815.08 294.30 827.96 318.28
  C 837.12 335.33 844.59 354.82 851.79 370.76
  C 858.94 386.59 870.31 397.75 888.99 395.78
  Q 894.62 395.19 904.68 391.67
  C 912.86 388.81 926.57 382.73 938.25 379.18
  C 968.36 370.03 1007.66 379.75 1033.42 396.56
  C 1051.73 408.51 1060.70 430.14 1065.61 450.56
  C 1066.34 453.61 1066.26 457.16 1067.00 460.49
  Z
  M 762.30 443.25
  C 762.62 471.66 754.03 499.96 723.25 508.01
  C 693.71 515.73 661.82 503.85 650.14 474.23
  C 645.50 462.46 645.33 451.25 646.51 438.75
  Q 646.66 437.12 645.59 437.26
  A 0.56 0.53 16.8 0 0 645.23 437.44
  Q 644.19 438.63 643.52 440.05
  C 631.73 465.03 633.50 490.79 652.15 511.87
  C 658.01 518.49 666.21 525.64 670.24 533.23
  Q 672.09 536.72 675.79 545.59
  C 690.50 580.87 721.13 608.25 760.13 612.20
  C 808.46 617.11 849.03 585.43 865.79 541.77
  C 867.19 538.15 868.83 531.26 871.87 528.86
  C 900.41 506.36 914.36 476.76 897.31 441.45
  Q 896.57 439.91 895.02 440.09
  A 1.28 1.28 0.0 0 0 893.88 441.42
  Q 894.05 445.76 894.24 449.64
  C 896.04 486.89 862.43 515.59 825.74 510.25
  C 789.78 505.02 772.87 473.09 778.54 439.30
  C 779.47 433.77 781.17 429.50 786.40 427.61
  C 803.49 421.43 822.17 414.87 833.91 401.91
  C 839.64 395.58 843.43 384.93 839.22 376.77
  C 832.93 364.60 816.18 358.20 803.52 355.44
  Q 768.02 347.69 732.79 356.41
  C 720.16 359.53 705.37 366.60 701.30 379.24
  C 693.17 404.48 733.06 420.59 749.99 426.56
  C 758.83 429.68 762.19 433.80 762.30 443.25
  Z"
/>
<path fill="#d2cfce" d="
  M 1067.00 460.49
  L 1067.19 460.78
  Q 1067.34 461.04 1067.37 461.33
  Q 1069.07 478.38 1072.61 495.51
  Q 1066.29 535.26 1046.09 570.09
  C 986.99 672.02 868.22 716.83 754.50 712.75
  C 651.70 709.06 549.63 662.95 495.16 572.33
  Q 483.13 552.32 476.47 533.52
  Q 469.62 514.20 467.82 492.01
  L 475.00 460.16
  Q 485.19 486.06 495.10 510.92
  Q 503.28 531.46 518.64 555.88
  C 552.93 610.37 604.16 649.98 665.79 670.69
  C 710.45 685.69 758.42 691.92 805.24 687.03
  C 908.74 676.24 996.96 614.58 1040.40 519.75
  Q 1044.96 509.80 1049.24 499.74
  C 1052.18 492.81 1057.24 485.40 1060.85 477.93
  C 1063.64 472.16 1064.06 467.13 1065.50 461.55
  A 0.27 0.26 -51.3 0 1 1065.99 461.49
  Q 1066.06 461.63 1066.11 461.76
  Q 1066.20 462.01 1066.33 461.78
  L 1067.00 460.49
  Z"
/>
<path fill="#ff8e27" d="
  M 393.11 613.67
  C 404.01 589.17 421.01 565.65 440.95 546.69
  Q 442.28 545.43 442.72 545.13
  Q 444.76 543.73 445.62 546.05
  Q 459.91 584.41 485.92 614.85
  Q 491.27 621.10 497.35 627.65
  Q 499.14 629.56 496.71 630.55
  Q 496.17 630.77 494.27 630.37
  Q 441.17 619.25 390.02 634.79
  Q 388.19 635.34 387.13 634.49
  A 0.96 0.95 -65.8 0 1 386.78 633.54
  Q 388.86 623.23 393.11 613.67
  Z"
/>
<path fill="#ff8e27" d="
  M 1093.42 548.70
  C 1095.07 544.09 1097.74 544.41 1100.78 547.46
  Q 1137.28 584.14 1154.18 633.22
  A 1.30 1.30 0.0 0 1 1152.79 634.94
  Q 1151.40 634.77 1149.78 634.34
  C 1116.42 625.41 1080.77 622.77 1046.76 630.44
  Q 1045.19 630.80 1043.48 630.35
  A 0.57 0.57 0.0 0 1 1043.06 629.70
  Q 1043.41 627.69 1044.64 626.41
  Q 1077.98 592.03 1093.42 548.70
  Z"
/>
<path fill="#fefefe" d="
  M 563.80 741.21
  Q 561.78 740.53 560.97 742.48
  C 552.92 762.07 545.61 778.44 527.88 790.39
  Q 524.86 792.42 522.90 789.00
  A 0.68 0.67 -23.5 0 0 522.10 788.69
  Q 521.06 789.03 521.00 787.60
  Q 520.92 785.81 520.71 784.03
  Q 521.21 773.62 521.53 763.19
  C 521.89 751.37 519.01 740.03 514.16 729.35
  Q 513.62 728.16 513.00 727.77
  A 1.04 1.03 -70.6 0 0 511.42 728.53
  C 510.19 739.62 508.52 750.44 508.21 761.48
  Q 505.41 767.36 501.62 777.65
  Q 497.90 787.71 489.81 797.08
  C 469.49 820.58 437.26 818.94 410.18 811.01
  A 0.66 0.66 0.0 0 0 409.37 811.86
  Q 409.62 812.59 408.70 812.78
  Q 398.76 795.96 394.60 776.53
  Q 391.05 759.95 391.28 743.00
  Q 391.38 735.61 391.36 727.83
  A 0.52 0.52 0.0 0 0 390.58 727.38
  Q 389.62 727.92 389.10 729.07
  C 377.50 755.23 378.58 785.32 385.66 812.64
  Q 384.76 812.50 383.64 811.80
  Q 382.61 811.17 381.67 810.97
  C 363.08 807.03 348.22 795.37 336.77 780.52
  Q 336.49 780.16 336.06 780.28
  Q 335.45 780.46 335.01 780.22
  C 330.77 759.33 329.17 737.76 337.07 717.47
  C 356.23 668.31 421.77 656.56 467.51 659.38
  C 511.10 662.08 553.70 682.43 562.25 729.51
  Q 563.30 735.33 563.80 741.21
  Z"
/>
<path fill="#fefefe" d="
  M 1205.21 779.75
  Q 1199.42 784.96 1194.24 790.09
  Q 1186.60 797.65 1183.03 800.10
  Q 1172.28 807.47 1159.02 809.50
  Q 1158.20 809.62 1157.06 810.22
  Q 1155.86 810.84 1154.92 810.59
  C 1161.85 782.47 1160.31 753.71 1152.62 726.11
  A 1.07 1.07 0.0 0 0 1151.99 725.40
  L 1151.27 725.11
  A 0.59 0.59 0.0 0 0 1150.46 725.61
  C 1149.53 738.53 1149.01 751.37 1147.56 764.25
  Q 1145.10 786.24 1136.48 804.69
  Q 1134.65 808.59 1131.78 812.69
  Q 1118.18 813.86 1105.44 815.75
  Q 1094.75 817.34 1089.99 817.21
  C 1066.85 816.58 1050.13 802.80 1041.14 782.27
  Q 1036.36 771.36 1035.28 766.00
  Q 1033.87 758.96 1030.79 755.65
  Q 1030.77 751.77 1030.66 747.54
  C 1030.52 742.21 1029.46 736.53 1029.02 730.94
  A 1.55 1.55 0.0 0 0 1027.31 729.52
  Q 1026.19 729.63 1025.59 730.88
  C 1016.92 749.02 1017.91 772.37 1018.82 791.94
  Q 1017.87 792.01 1017.38 791.41
  A 0.72 0.72 0.0 0 0 1016.56 791.19
  L 1014.91 791.84
  Q 1014.54 791.98 1014.16 791.88
  Q 1011.54 791.20 1009.78 789.71
  C 995.29 777.47 987.59 762.35 979.74 745.29
  Q 978.86 743.35 977.08 742.25
  Q 976.65 741.99 976.64 741.48
  L 976.63 739.81
  C 979.01 709.08 992.68 683.34 1022.72 671.77
  Q 1070.49 653.36 1121.27 661.33
  C 1168.14 668.68 1207.62 697.79 1208.45 748.97
  Q 1208.60 757.83 1207.96 763.99
  Q 1207.41 769.32 1205.21 779.75
  Z"
/>
<path fill="#ff8e27" d="
  M 928.08 773.40
  C 927.59 768.19 927.36 762.66 926.30 757.91
  Q 924.16 748.31 919.64 739.71
  Q 913.72 733.97 908.08 728.42
  Q 906.92 727.27 906.44 725.96
  L 947.23 710.53
  Q 948.27 710.14 948.11 711.24
  L 939.94 768.59
  A 2.75 2.75 0.0 0 1 937.91 770.86
  L 928.08 773.40
  Z"
/>
<path fill="#ff8e27" d="
  M 634.25 725.92
  C 628.39 728.68 625.51 733.92 620.37 741.13
  C 614.04 751.72 613.49 761.66 614.59 773.75
  Q 614.63 774.22 614.92 774.49
  C 599.48 774.50 598.73 764.10 597.77 751.65
  C 596.80 738.94 594.86 726.68 591.95 714.27
  C 591.39 711.89 592.77 710.52 595.10 711.36
  Q 614.69 718.47 634.25 725.92
  Z"
/>
<path fill="#d2cfce" d="
  M 634.25 725.92
  Q 770.26 766.95 906.44 725.96
  Q 906.92 727.27 908.08 728.42
  Q 913.72 733.97 919.64 739.71
  Q 918.62 741.00 917.62 741.41
  C 877.29 757.72 833.69 768.63 790.50 769.84
  Q 775.84 770.25 755.02 769.89
  C 746.74 769.75 737.70 768.86 729.00 768.43
  Q 722.11 768.09 706.61 766.00
  Q 695.09 764.45 686.87 762.77
  Q 652.48 755.75 620.37 741.13
  C 625.51 733.92 628.39 728.68 634.25 725.92
  Z"
/>
<path fill="#fefefe" d="
  M 919.64 739.71
  Q 924.16 748.31 926.30 757.91
  C 927.36 762.66 927.59 768.19 928.08 773.40
  C 826.97 809.37 716.52 808.65 614.92 774.49
  Q 614.63 774.22 614.59 773.75
  C 613.49 761.66 614.04 751.72 620.37 741.13
  Q 652.48 755.75 686.87 762.77
  Q 695.09 764.45 706.61 766.00
  Q 722.11 768.09 729.00 768.43
  C 737.70 768.86 746.74 769.75 755.02 769.89
  Q 775.84 770.25 790.50 769.84
  C 833.69 768.63 877.29 757.72 917.62 741.41
  Q 918.62 741.00 919.64 739.71
  Z"
/>
<path fill="#d2cfce" d="
  M 976.63 739.81
  L 976.64 741.48
  Q 976.65 741.99 977.08 742.25
  Q 978.86 743.35 979.74 745.29
  C 987.59 762.35 995.29 777.47 1009.78 789.71
  Q 1011.54 791.20 1014.16 791.88
  Q 1014.54 791.98 1014.91 791.84
  L 1016.56 791.19
  A 0.72 0.72 0.0 0 1 1017.38 791.41
  Q 1017.87 792.01 1018.82 791.94
  Q 1020.01 805.71 1022.49 821.50
  C 1022.95 824.45 1019.42 824.74 1017.61 823.73
  C 989.97 808.29 974.61 783.09 975.65 751.06
  C 975.76 747.70 976.42 743.58 976.63 739.81
  Z"
/>
<path fill="#d2cfce" d="
  M 563.80 741.21
  Q 565.42 749.69 564.77 759.00
  C 562.83 787.07 547.70 811.13 522.09 823.22
  A 2.26 2.25 -31.1 0 1 519.33 822.54
  Q 518.46 821.39 518.54 819.49
  Q 519.33 801.76 520.71 784.03
  Q 520.92 785.81 521.00 787.60
  Q 521.06 789.03 522.10 788.69
  A 0.68 0.67 -23.5 0 1 522.90 789.00
  Q 524.86 792.42 527.88 790.39
  C 545.61 778.44 552.92 762.07 560.97 742.48
  Q 561.78 740.53 563.80 741.21
  Z"
/>
<path fill="#d2cfce" d="
  M 1030.79 755.65
  Q 1033.87 758.96 1035.28 766.00
  Q 1036.36 771.36 1041.14 782.27
  C 1050.13 802.80 1066.85 816.58 1089.99 817.21
  Q 1094.75 817.34 1105.44 815.75
  Q 1118.18 813.86 1131.78 812.69
  C 1121.94 827.43 1108.21 833.86 1091.25 835.02
  C 1046.99 838.05 1030.08 791.37 1030.79 755.65
  Z"
/>
<path fill="#d2cfce" d="
  M 508.21 761.48
  C 508.82 793.38 492.80 834.79 455.24 836.33
  Q 430.46 837.35 413.99 818.99
  Q 410.46 815.05 408.70 812.78
  Q 409.62 812.59 409.37 811.86
  A 0.66 0.66 0.0 0 1 410.18 811.01
  C 437.26 818.94 469.49 820.58 489.81 797.08
  Q 497.90 787.71 501.62 777.65
  Q 505.41 767.36 508.21 761.48
  Z"
/>
<path fill="#d2cfce" d="
  M 385.66 812.64
  L 392.62 832.36
  A 1.60 1.60 0.0 0 1 391.13 834.49
  Q 360.04 834.86 344.46 809.25
  Q 336.75 796.57 335.01 780.22
  Q 335.45 780.46 336.06 780.28
  Q 336.49 780.16 336.77 780.52
  C 348.22 795.37 363.08 807.03 381.67 810.97
  Q 382.61 811.17 383.64 811.80
  Q 384.76 812.50 385.66 812.64
  Z"
/>
<path fill="#d2cfce" d="
  M 1205.21 779.75
  C 1203.44 809.33 1184.26 832.11 1154.01 834.97
  Q 1151.10 835.25 1148.90 835.00
  A 1.78 1.78 0.0 0 1 1147.41 832.66
  L 1154.92 810.59
  Q 1155.86 810.84 1157.06 810.22
  Q 1158.20 809.62 1159.02 809.50
  Q 1172.28 807.47 1183.03 800.10
  Q 1186.60 797.65 1194.24 790.09
  Q 1199.42 784.96 1205.21 779.75
  Z"
/>
<path fill="#fefefe" d="
  M 319.00 825.26
  C 334.54 850.81 360.66 864.89 390.50 864.45
  C 393.21 864.41 394.61 865.59 395.08 868.32
  C 397.46 881.90 398.43 894.76 395.36 908.23
  C 388.19 939.63 356.58 948.75 328.58 949.08
  C 323.78 949.14 324.37 952.27 324.57 956.13
  Q 325.29 969.81 325.53 983.69
  Q 325.58 986.26 323.01 986.26
  L 273.04 986.26
  A 2.22 2.22 0.0 0 1 270.82 984.04
  L 270.76 830.27
  Q 270.76 826.49 274.53 826.21
  Q 294.45 824.75 314.45 823.13
  C 316.24 822.98 318.18 823.90 319.00 825.26
  Z
  M 324.17 872.44
  L 323.48 900.63
  A 4.25 4.25 0.0 0 0 327.62 904.98
  L 328.99 905.01
  A 12.63 12.22 -88.6 0 0 341.52 892.69
  L 341.80 881.25
  A 12.63 12.22 -88.6 0 0 329.89 868.32
  L 328.52 868.29
  A 4.25 4.25 0.0 0 0 324.17 872.44
  Z"
/>
<path fill="#fefefe" d="
  M 1215.75 949.03
  C 1212.81 949.24 1210.57 950.06 1210.74 953.51
  Q 1211.51 968.61 1212.06 983.85
  Q 1212.15 986.25 1209.75 986.25
  L 1160.98 986.26
  A 3.77 3.76 0.2 0 1 1157.21 982.48
  L 1157.61 867.48
  A 3.43 3.43 0.0 0 1 1160.05 864.21
  Q 1168.44 861.70 1176.49 859.45
  Q 1204.65 851.61 1220.20 826.95
  C 1221.26 825.25 1222.32 824.16 1224.48 823.93
  C 1250.54 821.11 1272.05 831.95 1279.29 858.07
  C 1288.87 892.67 1283.34 939.85 1240.00 947.16
  C 1232.07 948.50 1223.77 948.45 1215.75 949.03
  Z
  M 1210.42 872.14
  L 1209.92 900.83
  A 4.13 4.13 0.0 0 0 1213.98 905.03
  L 1215.08 905.05
  A 12.57 12.57 0.0 0 0 1227.87 892.70
  L 1228.07 880.89
  A 12.57 12.57 0.0 0 0 1215.72 868.10
  L 1214.62 868.08
  A 4.13 4.13 0.0 0 0 1210.42 872.14
  Z"
/>
<path fill="#fefefe" d="
  M 610.20 872.31
  Q 609.66 873.29 609.66 874.75
  Q 609.39 929.72 609.07 984.72
  A 1.56 1.56 0.0 0 1 607.51 986.27
  L 557.12 986.26
  A 2.66 2.65 89.8 0 1 554.47 983.62
  L 553.58 873.58
  Q 553.56 871.41 551.39 871.30
  L 524.20 870.04
  Q 521.48 869.91 521.48 867.19
  L 521.51 855.51
  A 3.54 3.53 82.4 0 1 524.11 852.10
  C 538.96 848.06 550.57 842.98 562.06 832.55
  Q 566.12 828.86 569.72 825.18
  A 4.08 4.08 0.0 0 1 572.64 823.95
  Q 603.16 823.98 634.26 824.47
  C 638.91 824.54 642.17 824.22 642.25 829.61
  Q 642.53 848.75 642.51 867.66
  A 3.61 3.61 0.0 0 1 638.94 871.26
  L 611.46 871.56
  A 1.46 1.45 14.1 0 0 610.20 872.31
  Z"
/>
<path fill="#fefefe" d="
  M 937.56 880.76
  A 1.28 1.17 -42.4 0 0 937.58 880.54
  L 937.77 827.53
  A 3.24 3.23 89.9 0 1 940.97 824.31
  L 966.50 824.08
  A 4.69 4.67 64.8 0 1 969.54 825.18
  L 992.05 844.19
  A 3.00 3.00 0.0 0 1 993.11 846.48
  L 993.00 983.26
  A 3.01 3.01 0.0 0 1 989.99 986.27
  L 940.79 986.26
  A 2.12 2.10 72.7 0 1 939.05 985.34
  Q 937.96 983.77 937.94 981.25
  Q 937.83 957.36 937.33 933.58
  Q 937.25 929.52 933.19 929.55
  L 924.32 929.59
  A 3.39 3.39 0.0 0 0 920.95 932.93
  L 920.10 982.98
  A 3.33 3.33 0.0 0 1 916.77 986.26
  L 868.78 986.26
  Q 865.04 986.26 865.04 982.53
  L 864.69 827.99
  A 3.76 3.75 89.9 0 1 868.44 824.22
  Q 892.16 824.19 916.50 824.22
  C 919.70 824.22 919.89 827.44 919.95 829.75
  Q 920.60 854.77 920.81 879.39
  Q 920.84 883.08 924.52 883.20
  Q 929.16 883.36 934.35 883.53
  Q 937.01 883.61 937.56 880.76
  Z"
/>
<path fill="#fefefe" d="
  M 760.92 918.66
  C 731.64 906.76 724.06 875.13 733.31 847.26
  C 736.82 836.68 742.31 830.39 753.74 830.42
  Q 793.85 830.51 833.76 826.74
  C 836.96 826.44 846.28 826.73 845.60 831.70
  Q 842.88 851.36 840.13 871.01
  C 839.76 873.58 838.33 873.59 836.24 872.79
  C 824.83 868.42 788.49 856.54 779.44 867.33
  C 777.13 870.07 778.25 873.21 781.41 874.41
  Q 787.01 876.54 792.63 878.65
  C 816.43 887.59 841.51 891.75 850.42 919.76
  C 860.54 951.62 841.28 982.03 807.66 985.81
  C 781.97 988.71 756.68 987.43 731.03 984.68
  A 1.02 1.01 -86.6 0 1 730.13 983.66
  Q 730.17 981.35 730.51 978.75
  Q 733.26 957.88 735.92 937.14
  Q 736.22 934.86 738.40 935.58
  Q 753.72 940.66 769.98 943.60
  C 776.45 944.77 800.24 947.17 797.65 934.28
  Q 796.91 930.64 793.02 929.50
  Q 773.68 923.84 760.92 918.66
  Z"
/>
<path fill="#fefefe" d="
  M 1056.30 985.65
  C 997.47 973.61 999.77 898.69 1015.30 856.52
  Q 1016.67 852.79 1021.03 853.55
  Q 1046.25 857.99 1071.26 863.46
  C 1080.91 865.58 1088.62 865.53 1099.57 864.57
  C 1112.51 863.43 1123.80 862.32 1135.25 864.21
  Q 1138.55 864.76 1139.29 868.24
  C 1147.45 907.07 1146.51 969.40 1098.97 984.74
  C 1085.92 988.96 1070.05 988.46 1056.30 985.65
  Z
  M 1085.7255 881.3614
  A 10.74 10.74 0.0 0 0 1074.9480 870.6589
  L 1074.2080 870.6615
  A 10.74 10.74 0.0 0 0 1063.5056 881.4389
  L 1063.6745 929.8386
  A 10.74 10.74 0.0 0 0 1074.4520 940.5411
  L 1075.1920 940.5385
  A 10.74 10.74 0.0 0 0 1085.8944 929.7611
  L 1085.7255 881.3614
  Z"
/>
<path fill="#fefefe" d="
  M 465.75 926.40
  C 463.98 926.34 462.08 927.53 461.99 929.76
  C 461.80 934.25 460.97 939.75 466.38 939.80
  Q 490.38 940.00 513.47 940.03
  Q 515.20 940.03 515.20 941.76
  L 515.20 985.01
  Q 515.20 986.74 513.47 986.73
  L 411.27 986.18
  A 2.72 2.72 0.0 0 1 408.57 983.48
  Q 408.21 925.85 408.10 868.48
  C 408.10 865.64 408.15 863.07 411.75 863.01
  C 421.58 862.84 431.32 863.77 441.19 864.81
  C 452.81 866.04 463.00 864.93 474.97 862.53
  Q 492.89 858.95 510.77 855.17
  Q 512.29 854.85 513.39 854.89
  A 1.61 1.61 0.0 0 1 514.94 856.49
  L 515.01 868.46
  Q 515.03 871.51 511.97 871.50
  Q 489.40 871.41 467.25 871.30
  C 461.45 871.27 461.26 876.51 461.82 880.74
  C 462.29 884.30 465.32 885.06 468.79 885.03
  Q 479.14 884.96 489.49 885.17
  C 495.69 885.29 496.47 888.43 496.49 894.02
  Q 496.52 906.90 496.58 919.74
  C 496.60 923.64 495.10 927.13 490.75 927.05
  Q 478.25 926.83 465.75 926.40
  Z"
/>
<path fill="#fefefe" d="
  M 966.53 1064.51
  C 978.44 1034.31 1023.83 1030.78 1050.75 1032.22
  C 1071.94 1033.35 1093.82 1044.25 1106.44 1061.80
  C 1112.78 1070.62 1116.51 1082.35 1118.29 1093.25
  C 1123.47 1125.16 1118.86 1158.40 1117.98 1190.50
  C 1117.75 1198.87 1119.13 1213.17 1119.51 1223.01
  C 1119.81 1230.88 1116.71 1235.36 1111.38 1240.62
  Q 1111.03 1240.97 1110.53 1241.06
  C 1096.70 1243.43 1077.11 1244.40 1064.79 1237.92
  C 1059.25 1235.02 1058.12 1231.03 1058.26 1224.68
  C 1058.73 1203.05 1060.29 1181.48 1060.98 1159.92
  Q 1061.01 1158.88 1059.96 1158.94
  Q 1037.95 1160.27 1015.94 1158.84
  Q 1014.59 1158.76 1014.52 1160.11
  C 1013.54 1179.92 1014.29 1199.62 1015.31 1219.51
  C 1015.90 1231.16 1014.40 1240.68 1000.65 1242.85
  C 989.39 1244.63 960.43 1247.11 957.36 1230.63
  Q 957.06 1229.00 956.86 1223.75
  Q 955.83 1197.26 955.94 1170.76
  C 955.97 1164.49 954.54 1155.50 954.82 1148.06
  C 955.67 1125.67 959.21 1103.49 961.77 1081.26
  C 962.42 1075.61 964.49 1069.67 966.53 1064.51
  Z
  M 1060.53 1131.57
  C 1059.79 1116.02 1060.64 1101.21 1056.82 1085.17
  C 1054.35 1074.85 1048.42 1066.55 1039.95 1060.31
  Q 1039.57 1060.02 1039.10 1060.17
  C 1034.71 1061.54 1028.61 1064.28 1026.63 1067.98
  Q 1023.63 1073.58 1021.86 1082.26
  Q 1020.52 1088.82 1016.95 1111.50
  C 1015.84 1118.51 1014.86 1126.76 1015.57 1133.82
  Q 1015.62 1134.39 1016.15 1134.16
  Q 1018.29 1133.20 1019.25 1133.20
  C 1037.09 1133.12 1048.13 1133.47 1060.03 1132.16
  Q 1060.55 1132.10 1060.53 1131.57
  Z"
/>
<path fill="#fefefe" d="
  M 264.63 1042.90
  C 267.19 1036.56 274.15 1034.00 280.51 1033.54
  C 289.84 1032.87 317.23 1031.77 322.88 1041.13
  C 324.99 1044.62 324.32 1050.48 324.13 1054.75
  C 323.25 1074.97 321.90 1095.25 322.56 1115.50
  Q 323.75 1152.08 327.08 1196.01
  Q 327.67 1203.83 331.36 1209.94
  Q 331.66 1210.43 332.23 1210.41
  L 363.51 1209.03
  Q 363.93 1209.01 363.97 1208.59
  C 366.40 1182.13 366.69 1161.71 368.36 1138.26
  Q 369.24 1125.91 368.52 1117.25
  C 366.92 1098.11 366.87 1078.94 366.83 1059.75
  Q 366.81 1052.25 368.12 1044.88
  C 369.19 1038.90 374.71 1038.64 379.67 1037.54
  C 392.43 1034.73 408.55 1033.22 420.76 1037.95
  C 429.33 1041.26 428.51 1049.40 428.20 1057.42
  C 427.60 1072.81 428.56 1088.58 428.80 1104.00
  Q 429.53 1149.47 426.64 1194.84
  C 426.22 1201.48 427.48 1207.56 425.53 1214.34
  Q 421.00 1230.13 405.76 1235.57
  C 396.19 1238.99 386.91 1238.70 376.74 1238.73
  C 365.18 1238.77 354.12 1239.90 341.76 1240.05
  Q 316.08 1240.37 292.98 1232.49
  Q 289.19 1231.20 283.37 1227.60
  Q 266.51 1217.20 265.02 1197.24
  Q 264.04 1184.11 262.16 1147.25
  C 260.45 1113.78 261.41 1077.93 262.85 1048.87
  C 262.94 1047.08 264.03 1044.39 264.63 1042.90
  Z"
/>
<path fill="#fefefe" d="
  M 728.09 1240.25
  C 716.51 1244.93 704.67 1243.12 692.76 1241.06
  C 686.17 1239.92 678.30 1237.63 677.26 1229.76
  Q 676.87 1226.77 677.58 1221.38
  C 678.86 1211.63 679.31 1201.81 679.95 1192.00
  C 680.21 1188.01 681.25 1179.70 680.96 1174.00
  Q 680.17 1157.98 681.56 1142.00
  C 682.81 1127.67 684.55 1113.30 685.12 1098.93
  C 685.42 1091.19 684.50 1083.18 684.08 1075.25
  Q 683.14 1057.46 684.34 1047.61
  Q 685.39 1038.93 694.56 1036.98
  C 707.63 1034.21 733.96 1033.34 741.13 1048.24
  Q 742.67 1051.45 743.01 1058.49
  C 743.53 1068.85 744.37 1079.60 744.32 1089.51
  C 744.20 1110.40 743.58 1133.11 740.44 1154.11
  Q 739.80 1158.39 740.11 1162.42
  C 741.76 1183.78 739.75 1205.00 738.69 1226.34
  C 738.24 1235.33 735.65 1237.19 728.09 1240.25
  Z"
/>
<path fill="#fefefe" d="
  M 1221.97 1212.87
  Q 1245.99 1212.01 1270.25 1212.08
  C 1276.55 1212.09 1283.68 1212.62 1287.53 1217.86
  C 1290.19 1221.49 1292.60 1229.54 1288.25 1233.08
  Q 1283.39 1237.03 1277.74 1237.26
  C 1262.17 1237.91 1247.11 1238.61 1230.99 1238.81
  C 1212.66 1239.04 1191.18 1241.39 1175.02 1237.32
  Q 1160.99 1233.78 1160.81 1218.99
  C 1160.62 1203.38 1163.63 1187.81 1164.40 1172.21
  C 1166.33 1132.78 1168.57 1093.23 1168.56 1053.75
  Q 1168.56 1052.58 1168.88 1048.01
  C 1170.07 1030.87 1210.17 1034.54 1219.91 1037.62
  C 1227.83 1040.12 1229.68 1047.17 1228.84 1054.75
  C 1228.26 1060.03 1227.43 1065.11 1227.57 1070.44
  C 1227.91 1083.38 1226.95 1095.87 1225.92 1108.76
  Q 1224.07 1131.73 1225.46 1158.25
  Q 1225.90 1166.72 1224.98 1178.50
  Q 1223.66 1195.52 1221.59 1212.45
  Q 1221.54 1212.88 1221.97 1212.87
  Z"
/>
<path fill="#fefefe" d="
  M 571.20 1113.41
  C 569.65 1092.56 570.13 1071.59 570.47 1050.69
  Q 570.55 1045.91 571.96 1043.56
  C 575.39 1037.87 583.66 1036.11 589.75 1036.36
  C 600.27 1036.78 624.60 1035.90 628.35 1046.14
  Q 629.33 1048.78 628.87 1054.95
  Q 626.97 1080.56 627.68 1095.50
  Q 629.53 1134.61 630.69 1173.75
  Q 631.11 1188.12 629.95 1202.43
  Q 629.52 1207.69 629.45 1212.08
  C 629.28 1221.93 629.73 1231.34 619.01 1235.53
  C 611.14 1238.61 601.29 1238.52 592.75 1238.68
  C 584.45 1238.83 577.58 1238.40 572.10 1232.70
  Q 569.88 1230.39 567.01 1223.70
  Q 560.86 1209.37 553.63 1195.56
  Q 541.65 1172.66 530.00 1149.59
  Q 529.50 1148.60 529.27 1148.09
  Q 528.21 1145.77 528.08 1148.32
  Q 527.76 1154.61 527.47 1161.26
  C 526.50 1183.26 526.36 1206.06 524.49 1227.25
  C 524.26 1229.82 524.01 1234.65 522.00 1236.83
  C 518.92 1240.16 514.15 1241.60 509.74 1241.82
  C 499.33 1242.32 487.92 1242.38 477.85 1239.32
  C 466.23 1235.79 466.90 1228.01 468.48 1217.29
  C 469.85 1208.04 468.49 1198.67 469.08 1191.51
  C 469.86 1182.05 470.81 1173.23 470.55 1163.34
  C 470.27 1152.95 471.26 1142.60 471.72 1133.34
  Q 472.08 1126.18 471.58 1117.17
  Q 469.94 1087.51 468.06 1057.86
  Q 467.66 1051.56 468.76 1048.74
  C 474.54 1033.97 509.05 1036.61 520.03 1038.50
  C 528.37 1039.94 532.08 1045.79 537.05 1053.67
  Q 555.50 1082.87 570.57 1113.58
  A 0.33 0.33 0.0 0 0 571.20 1113.41
  Z"
/>
<path fill="#fefefe" d="
  M 854.87 1142.82
  Q 852.96 1171.28 853.53 1186.00
  C 854.02 1198.45 855.64 1210.77 855.82 1223.25
  C 855.96 1232.55 848.05 1239.72 839.50 1241.01
  Q 835.09 1241.68 829.01 1241.18
  C 816.36 1240.14 794.11 1239.77 793.17 1223.51
  C 791.19 1189.04 794.54 1154.38 791.10 1120.04
  Q 789.11 1100.14 787.07 1080.24
  Q 785.20 1062.00 785.49 1052.76
  C 785.83 1041.68 796.35 1039.05 805.25 1039.09
  C 814.94 1039.14 825.00 1039.61 834.25 1039.45
  Q 855.50 1039.10 876.75 1038.62
  C 889.01 1038.35 908.34 1036.92 918.99 1044.28
  C 924.38 1048.00 923.13 1055.76 918.42 1059.41
  C 913.56 1063.18 905.17 1064.03 899.25 1064.08
  Q 875.13 1064.25 850.54 1063.84
  A 0.57 0.56 -3.1 0 0 849.97 1064.47
  C 852.10 1081.08 852.59 1098.34 853.56 1115.42
  Q 853.59 1115.94 854.11 1115.90
  Q 872.43 1114.56 890.74 1114.27
  C 904.33 1114.05 917.55 1114.88 916.53 1132.96
  Q 916.41 1135.03 915.16 1136.25
  C 912.33 1139.00 906.81 1140.19 903.00 1140.29
  Q 879.18 1140.90 855.39 1142.30
  Q 854.90 1142.33 854.87 1142.82
  Z"
/>
<ellipse fill="#ff8e27" cx="0.00" cy="0.00" transform="translate(895.64,1064.33) rotate(-0.1)" rx="2.88" ry="0.12"/>
</g>
<g>
<path fill="#530609" d="
  M 671.23 317.22
  A 34.15 34.15 0.0 0 1 637.08 351.37
  A 34.15 34.15 0.0 0 1 602.93 317.22
  A 34.15 34.15 0.0 0 1 637.08 283.07
  A 34.15 34.15 0.0 0 1 671.23 317.22
  Z
  M 649.9173 316.6695
  A 9.43 8.02 68.1 0 0 653.8412 304.9286
  A 9.43 8.02 68.1 0 0 642.8827 299.1705
  A 9.43 8.02 68.1 0 0 638.9588 310.9114
  A 9.43 8.02 68.1 0 0 649.9173 316.6695
  Z
  M 645.3918 335.6543
  A 4.58 4.02 78.9 0 0 648.4548 330.3861
  A 4.58 4.02 78.9 0 0 643.6282 326.6657
  A 4.58 4.02 78.9 0 0 640.5652 331.9339
  A 4.58 4.02 78.9 0 0 645.3918 335.6543
  Z"
/>
<path fill="#530609" d="
  M 937.67 317.43
  A 34.31 34.31 0.0 0 1 903.36 351.74
  A 34.31 34.31 0.0 0 1 869.05 317.43
  A 34.31 34.31 0.0 0 1 903.36 283.12
  A 34.31 34.31 0.0 0 1 937.67 317.43
  Z
  M 890.8597 316.4383
  A 9.17 7.78 111.9 0 0 901.4986 310.8318
  A 9.17 7.78 111.9 0 0 897.7003 299.4217
  A 9.17 7.78 111.9 0 0 887.0614 305.0282
  A 9.17 7.78 111.9 0 0 890.8597 316.4383
  Z
  M 896.6486 335.2600
  A 4.21 3.53 82.1 0 0 899.5665 330.6048
  A 4.21 3.53 82.1 0 0 895.4914 326.9200
  A 4.21 3.53 82.1 0 0 892.5735 331.5752
  A 4.21 3.53 82.1 0 0 896.6486 335.2600
  Z"
/>
<path fill="#530609" d="
  M 723.25 508.01
  C 754.03 499.96 762.62 471.66 762.30 443.25
  C 762.19 433.80 758.83 429.68 749.99 426.56
  C 733.06 420.59 693.17 404.48 701.30 379.24
  C 705.37 366.60 720.16 359.53 732.79 356.41
  Q 768.02 347.69 803.52 355.44
  C 816.18 358.20 832.93 364.60 839.22 376.77
  C 843.43 384.93 839.64 395.58 833.91 401.91
  C 822.17 414.87 803.49 421.43 786.40 427.61
  C 781.17 429.50 779.47 433.77 778.54 439.30
  C 772.87 473.09 789.78 505.02 825.74 510.25
  C 862.43 515.59 896.04 486.89 894.24 449.64
  Q 894.05 445.76 893.88 441.42
  A 1.28 1.28 0.0 0 1 895.02 440.09
  Q 896.57 439.91 897.31 441.45
  C 914.36 476.76 900.41 506.36 871.87 528.86
  C 868.83 531.26 867.19 538.15 865.79 541.77
  C 849.03 585.43 808.46 617.11 760.13 612.20
  C 721.13 608.25 690.50 580.87 675.79 545.59
  Q 672.09 536.72 670.24 533.23
  C 666.21 525.64 658.01 518.49 652.15 511.87
  C 633.50 490.79 631.73 465.03 643.52 440.05
  Q 644.19 438.63 645.23 437.44
  A 0.56 0.53 16.8 0 1 645.59 437.26
  Q 646.66 437.12 646.51 438.75
  C 645.33 451.25 645.50 462.46 650.14 474.23
  C 661.82 503.85 693.71 515.73 723.25 508.01
  Z
  M 840.20 548.59
  C 826.57 539.35 811.44 538.39 795.99 543.02
  C 785.16 546.26 771.89 550.77 762.25 547.97
  C 741.72 541.99 722.47 535.24 702.43 547.31
  C 699.31 549.19 697.28 551.86 699.71 555.26
  Q 701.80 558.20 706.89 563.36
  Q 719.54 576.22 735.58 583.85
  C 774.10 602.20 814.30 587.72 839.64 555.82
  C 841.73 553.19 843.83 551.05 840.20 548.59
  Z"
/>
<path fill="#530609" d="
  M 1210.42 872.14
  A 4.13 4.13 0.0 0 1 1214.62 868.08
  L 1215.72 868.10
  A 12.57 12.57 0.0 0 1 1228.07 880.89
  L 1227.87 892.70
  A 12.57 12.57 0.0 0 1 1215.08 905.05
  L 1213.98 905.03
  A 4.13 4.13 0.0 0 1 1209.92 900.83
  L 1210.42 872.14
  Z"
/>
<path fill="#530609" d="
  M 324.17 872.44
  A 4.25 4.25 0.0 0 1 328.52 868.29
  L 329.89 868.32
  A 12.63 12.22 -88.6 0 1 341.80 881.25
  L 341.52 892.69
  A 12.63 12.22 -88.6 0 1 328.99 905.01
  L 327.62 904.98
  A 4.25 4.25 0.0 0 1 323.48 900.63
  L 324.17 872.44
  Z"
/>
<rect fill="#530609" x="-11.11" y="-34.94" transform="translate(1074.70,905.60) rotate(-0.2)" width="22.22" height="69.88" rx="10.74"/>
<path fill="#530609" d="
  M 1056.82 1085.17
  C 1060.64 1101.21 1059.79 1116.02 1060.53 1131.57
  Q 1060.55 1132.10 1060.03 1132.16
  C 1048.13 1133.47 1037.09 1133.12 1019.25 1133.20
  Q 1018.29 1133.20 1016.15 1134.16
  Q 1015.62 1134.39 1015.57 1133.82
  C 1014.86 1126.76 1015.84 1118.51 1016.95 1111.50
  Q 1020.52 1088.82 1021.86 1082.26
  Q 1023.63 1073.58 1026.63 1067.98
  C 1028.61 1064.28 1034.71 1061.54 1039.10 1060.17
  Q 1039.57 1060.02 1039.95 1060.31
  C 1048.42 1066.55 1054.35 1074.85 1056.82 1085.17
  Z"
/>
</g>
<g>
<ellipse fill="#fefefe" cx="0.00" cy="0.00" transform="translate(646.40,307.92) rotate(68.1)" rx="9.43" ry="8.02"/>
<ellipse fill="#fefefe" cx="0.00" cy="0.00" transform="translate(894.28,307.93) rotate(111.9)" rx="9.17" ry="7.78"/>
<ellipse fill="#d2cfce" cx="0.00" cy="0.00" transform="translate(644.51,331.16) rotate(78.9)" rx="4.58" ry="4.02"/>
<ellipse fill="#d2cfce" cx="0.00" cy="0.00" transform="translate(896.07,331.09) rotate(82.1)" rx="4.21" ry="3.53"/>
<path fill="#ff8663" d="
  M 795.99 543.02
  C 811.44 538.39 826.57 539.35 840.20 548.59
  C 843.83 551.05 841.73 553.19 839.64 555.82
  C 814.30 587.72 774.10 602.20 735.58 583.85
  Q 719.54 576.22 706.89 563.36
  Q 701.80 558.20 699.71 555.26
  C 697.28 551.86 699.31 549.19 702.43 547.31
  C 722.47 535.24 741.72 541.99 762.25 547.97
  C 771.89 550.77 785.16 546.26 795.99 543.02
  Z"
/>
</g>
</svg>
